<svg width="463" height="396" viewBox="0 0 463 396" fill="none" xmlns="http://www.w3.org/2000/svg">
<g clip-path="url(#clip0)">
<path d="M462.9 193.8C462.9 203.4 461.9 213 459.6 222.3C458.8 225.4 457.9 228.4 456.9 231.4C456.6 232.3 456.3 233.1 456 234C455.7 234.7 455.5 235.4 455.2 236.1C455.1 236.3 455.1 236.5 455 236.7C454.7 237.4 454.4 238.1 454.1 238.9C454.1 239 454 239.1 454 239.2C453.7 239.9 453.4 240.6 453.1 241.3C453 241.6 452.8 241.9 452.7 242.2C452.4 242.8 452.1 243.4 451.8 244C451.5 244.6 451.2 245.3 450.8 245.9C450.7 246.1 450.6 246.4 450.4 246.6C450.1 247.1 449.8 247.7 449.6 248.2C449.4 248.6 449.1 249.1 448.9 249.5C447.8 251.5 446.7 253.4 445.6 255.3C445.1 256.1 444.7 256.9 444.2 257.6C444.1 257.8 444 258 443.9 258.2C443.3 259.1 442.8 260 442.2 260.8C441.7 261.5 441.3 262.2 440.8 262.9C440.4 263.5 440 264.1 439.5 264.8C439.4 264.9 439.3 265.1 439.2 265.2C438.8 265.8 438.3 266.5 437.8 267.1C437.2 267.9 436.7 268.7 436.1 269.4C436 269.6 435.9 269.7 435.7 269.9C435.1 270.8 434.4 271.7 433.7 272.5C433.3 273 432.9 273.5 432.5 274.1C431.8 275 431 276 430.3 276.9C429.6 277.8 428.9 278.7 428.1 279.6C428 279.7 427.9 279.8 427.9 279.9C427.2 280.8 426.5 281.7 425.7 282.5C425.5 282.8 425.3 283 425 283.3C424.3 284.1 423.6 284.9 423 285.7C421 288 419.1 290.3 417.1 292.6C413 297.3 408.9 301.9 404.7 306.5C401.2 310.3 397.6 314.1 394 317.8C376.6 335.7 357.7 352.4 337.2 365.7C334.7 367.3 332.1 369 329.5 370.5C328.6 371.1 327.6 371.6 326.7 372.2C326.5 372.3 326.4 372.4 326.2 372.5C325.2 373.1 324.2 373.6 323.3 374.1C322.3 374.7 321.3 375.2 320.3 375.7C319.8 375.9 319.4 376.2 318.9 376.4C316.9 377.4 314.9 378.4 312.9 379.4C311.8 379.9 310.7 380.4 309.6 380.9C308.6 381.4 307.6 381.8 306.6 382.3C306.2 382.5 305.8 382.7 305.4 382.8C304.5 383.2 303.5 383.6 302.6 384C300.8 384.7 299 385.4 297.1 386.1C296.4 386.4 295.7 386.6 295 386.9C294.6 387 294.2 387.2 293.8 387.3C293.1 387.5 292.5 387.7 291.8 387.9C291.2 388.1 290.6 388.3 290.1 388.4C290.1 388.4 290.1 388.4 290 388.4C288.9 388.8 287.7 389.1 286.6 389.4C284.8 389.9 283 390.4 281.2 390.9C280 391.2 278.8 391.5 277.6 391.8C276.5 392.1 275.3 392.3 274.2 392.5C274.1 392.5 274 392.5 273.9 392.5C272.7 392.7 271.5 393 270.3 393.2C269.7 393.3 269.1 393.4 268.5 393.5C267.9 393.6 267.3 393.7 266.7 393.8C266.2 393.9 265.6 394 265 394C264.3 394.1 263.7 394.2 263 394.3C255.9 395.2 248.8 395.6 241.6 395.5C241.2 395.5 240.7 395.5 240.3 395.5C233.8 395.4 227.4 394.9 220.9 394.1C220.4 394 220 394 219.5 393.9C218.7 393.8 217.9 393.7 217.1 393.6C216.5 393.5 215.8 393.4 215.2 393.3C212.5 392.9 209.9 392.4 207.2 391.9C206.6 391.8 206 391.7 205.4 391.5C203.6 391.1 201.8 390.7 200.1 390.3C198.9 390 197.7 389.7 196.6 389.4C196 389.3 195.4 389.1 194.8 388.9C194.2 388.8 193.6 388.6 193 388.4C190.7 387.8 188.3 387.1 186 386.4C183.3 385.6 180.6 384.7 177.9 383.8C176.9 383.5 175.9 383.1 175 382.8C172 381.7 169 380.6 166 379.4C165.5 379.2 164.9 379 164.4 378.7C164 378.5 163.5 378.3 163.1 378.1C162.8 378 162.5 377.8 162.2 377.7C160.3 376.8 158.2 375.8 155.9 374.6C155.5 374.4 155.1 374.2 154.7 374C153.3 373.3 151.9 372.5 150.4 371.7C147.3 370 143.9 368.1 140.4 366C100.4 342.5 39.1001 298.3 24.8001 281.5C24.1001 280.6 23.4001 279.8 22.7001 278.9C22.2001 278.2 21.6001 277.5 21.1001 276.8C20.6001 276.2 20.1001 275.5 19.7001 274.9C19.3001 274.3 18.9001 273.8 18.5001 273.2C18.1001 272.7 17.7001 272.1 17.4001 271.6C17.4001 271.6 17.4001 271.5 17.3001 271.5C16.9001 270.8 16.4001 270.2 16.0001 269.5C15.6001 268.9 15.2001 268.2 14.8001 267.5C14.6001 267.2 14.4001 266.9 14.2001 266.6C13.8001 265.9 13.3001 265.1 12.9001 264.4C12.4001 263.6 12.0001 262.8 11.5001 261.9C10.7001 260.5 10.0001 259 9.3001 257.5C9.1001 257.1 8.9001 256.7 8.8001 256.4C7.4001 253.4 6.1001 250.3 5.1001 247.1C4.7001 246 4.4001 244.9 4.0001 243.8C3.6001 242.4 3.2001 240.9 2.8001 239.5C2.7001 239.2 2.7001 238.9 2.6001 238.6C2.4001 237.8 2.2001 237.1 2.1001 236.3C1.9001 235.2 1.7001 234.2 1.5001 233.1C1.5001 232.8 1.4001 232.6 1.4001 232.3C1.3001 231.8 1.2001 231.2 1.2001 230.6C1.1001 229.9 1.0001 229.3 1.0001 228.6C1.0001 228.4 0.900098 228.2 0.900098 227.9C0.800098 227.3 0.800098 226.8 0.800098 226.2C0.800098 226.1 0.800098 226.1 0.800098 226.1C0.800098 225.4 0.700098 224.7 0.700098 224.1C0.700098 224 0.700098 224 0.700098 223.9C0.700098 223.2 0.700098 222.5 0.600098 221.8C0.600098 221.5 0.600098 221.3 0.600098 221C0.600098 220.6 0.600098 220.2 0.600098 219.8C0.600098 218.8 0.600098 217.7 0.700098 216.7C0.700098 216 0.800098 215.3 0.900098 214.7C1.0001 213.4 1.2001 212 1.4001 210.7C1.5001 210 1.6001 209.3 1.7001 208.7C1.9001 207.3 2.2001 206 2.6001 204.6C3.5001 201 4.7001 197.6 6.1001 194.4C7.2001 191.9 8.4001 189.4 9.7001 187.1C9.8001 186.9 9.9001 186.7 10.0001 186.5C15.4001 177 22.7001 168.6 31.0001 160.8C31.9001 160 32.8001 159.1 33.7001 158.3C34.7001 157.4 35.6001 156.6 36.6001 155.7C36.7001 155.7 36.7001 155.6 36.8001 155.5C38.4001 154.1 39.9001 152.8 41.5001 151.5C43.9001 149.4 46.4001 147.4 48.9001 145.4C49.0001 145.3 49.1001 145.3 49.1001 145.2C51.3001 143.5 53.4001 141.8 55.6001 140.1C59.0001 137.5 62.4001 134.9 65.8001 132.2C66.7001 131.5 67.6001 130.8 68.4001 130.1C69.4001 129.3 70.3001 128.6 71.3001 127.8C80.3001 120.6 88.0001 113 95.2001 105.2C96.6001 103.7 98.0001 102.1 99.3001 100.6C100 99.9 100.6 99.1 101.2 98.4C110.3 88 118.8 77.5 128.3 67.6C130.6 65.2 132.8 62.9 135.2 60.6C137.2 58.7 139.2 56.8 141.3 55C143.7 52.9 146.2 50.8 148.8 48.8C152.4 46 156.1 43.4 160.1 40.9C161.1 40.3 162 39.7 163 39.1C262.7 -22.9 336.1 -2.59999 385.1 39.1C388.8 42.2 392.3 45.5 395.8 48.9C397.9 50.9 399.9 53 401.8 55.1C402 55.3 402.2 55.6 402.4 55.8C403.8 57.3 405.1 58.7 406.4 60.2C406.8 60.6 407.2 61.1 407.5 61.5C408.1 62.2 408.6 62.8 409.2 63.5C409.9 64.3 410.6 65.1 411.3 66C411.7 66.5 412.2 67 412.6 67.6C415.3 71 417.9 74.4 420.4 77.8C420.9 78.5 421.4 79.2 421.9 79.9C425.3 84.7 428.5 89.5 431.4 94.4C431.8 95.1 432.2 95.8 432.6 96.5C433 97.2 433.4 97.9 433.8 98.6C434.2 99.3 434.6 100 435 100.6C435.4 101.3 435.8 102 436.2 102.7C436.6 103.4 437 104.1 437.3 104.8C437.7 105.5 438.1 106.2 438.4 106.8C438.8 107.5 439.1 108.2 439.5 108.8C439.9 109.5 440.2 110.1 440.6 110.8C440.9 111.5 441.3 112.1 441.6 112.8C441.9 113.5 442.3 114.1 442.6 114.8C443.9 117.4 445.1 120 446.3 122.6C446.9 123.9 447.5 125.2 448 126.5C450.5 132.2 452.6 137.7 454.4 142.8V142.9C454.6 143.4 454.7 143.9 454.9 144.3C455.1 144.8 455.2 145.3 455.4 145.8C455.5 146.2 455.6 146.6 455.8 146.9C456 147.5 456.2 148 456.3 148.6C456.5 149.2 456.7 149.8 456.8 150.4C457.1 151.5 457.5 152.6 457.8 153.8C458.1 154.7 458.3 155.7 458.6 156.7C458.6 156.9 458.7 157.1 458.7 157.2C458.7 157.3 458.8 157.5 458.8 157.6C458.9 158.2 459.1 158.7 459.2 159.3C459.6 160.8 459.9 162.3 460.2 163.8C460.4 164.6 460.5 165.4 460.7 166.2C460.7 166.3 460.8 166.5 460.8 166.7C460.9 167.5 461.1 168.2 461.2 169C461.4 170 461.6 171.1 461.7 172.1C461.8 172.9 461.9 173.7 462.1 174.5C462.1 174.6 462.1 174.7 462.1 174.9C462.2 175.4 462.2 176 462.3 176.5C462.4 176.9 462.4 177.4 462.5 177.8C462.7 179.4 462.8 181 463 182.6C463 183 463.1 183.3 463.1 183.7C463.1 184.3 463.2 184.9 463.2 185.5C463.2 186.2 463.3 186.8 463.3 187.5C463.3 188 463.4 188.5 463.4 189.1C463.4 189.9 463.4 190.6 463.5 191.4C462.8 192 462.9 192.9 462.9 193.8Z" fill="#03372B"/>
<g opacity="0.7">
<path opacity="0.7" d="M462.9 193.8C462.9 203.4 461.9 213 459.6 222.3C458.8 225.4 457.9 228.4 456.9 231.4C456.6 232.3 456.3 233.1 456 234C455.7 234.7 455.5 235.4 455.2 236.1C455.1 236.3 455.1 236.5 455 236.7C454.7 237.4 454.4 238.1 454.1 238.9C454.1 239 454 239.1 454 239.2C453.7 239.9 453.4 240.6 453.1 241.3C453 241.6 452.8 241.9 452.7 242.2C452.4 242.8 452.1 243.4 451.8 244C451.5 244.6 451.2 245.3 450.8 245.9C450.7 246.1 450.6 246.4 450.4 246.6C450.1 247.1 449.8 247.7 449.6 248.2C449.4 248.6 449.1 249.1 448.9 249.5C447.8 251.5 446.7 253.4 445.6 255.3C445.1 256.1 444.7 256.9 444.2 257.6C444.1 257.8 444 258 443.9 258.2C443.3 259.1 442.8 260 442.2 260.8C441.7 261.5 441.3 262.2 440.8 262.9C440.4 263.5 440 264.1 439.5 264.8C439.4 264.9 439.3 265.1 439.2 265.2C438.8 265.8 438.3 266.5 437.8 267.1C437.2 267.9 436.7 268.7 436.1 269.4C436 269.6 435.9 269.7 435.7 269.9C435.1 270.8 434.4 271.7 433.7 272.5C433.3 273 432.9 273.5 432.5 274.1C431.8 275 431 276 430.3 276.9C429.6 277.8 428.9 278.7 428.1 279.6C428 279.7 427.9 279.8 427.9 279.9C427.2 280.8 426.5 281.7 425.7 282.5C425.5 282.8 425.3 283 425 283.3C424.3 284.1 423.6 284.9 423 285.7C421 288 419.1 290.3 417.1 292.6C413 297.3 408.9 301.9 404.7 306.5C401.2 310.3 397.6 314.1 394 317.8C376.6 335.7 357.7 352.4 337.2 365.7C334.7 367.3 332.1 369 329.5 370.5C328.6 371.1 327.6 371.6 326.7 372.2C326.5 372.3 326.4 372.4 326.2 372.5C325.2 373.1 324.2 373.6 323.3 374.1C322.3 374.7 321.3 375.2 320.3 375.7C319.8 375.9 319.4 376.2 318.9 376.4C316.9 377.4 314.9 378.4 312.9 379.4C311.8 379.9 310.7 380.4 309.6 380.9C308.6 381.4 307.6 381.8 306.6 382.3C306.2 382.5 305.8 382.7 305.4 382.8C304.5 383.2 303.5 383.6 302.6 384C300.8 384.7 299 385.4 297.1 386.1C296.4 386.4 295.7 386.6 295 386.9C294.6 387 294.2 387.2 293.8 387.3C293.1 387.5 292.5 387.7 291.8 387.9C291.2 388.1 290.6 388.3 290.1 388.4C290.1 388.4 290.1 388.4 290 388.4C288.9 388.8 287.7 389.1 286.6 389.4C284.8 389.9 283 390.4 281.2 390.9C280 391.2 278.8 391.5 277.6 391.8C276.5 392.1 275.3 392.3 274.2 392.5C274.1 392.5 274 392.5 273.9 392.5C272.7 392.7 271.5 393 270.3 393.2C269.7 393.3 269.1 393.4 268.5 393.5C267.9 393.6 267.3 393.7 266.7 393.8C266.2 393.9 265.6 394 265 394C264.3 394.1 263.7 394.2 263 394.3C255.9 395.2 248.8 395.6 241.6 395.5C241.2 395.5 240.7 395.5 240.3 395.5C233.8 395.4 227.4 394.9 220.9 394.1C220.4 394 220 394 219.5 393.9C218.7 393.8 217.9 393.7 217.1 393.6C216.5 393.5 215.8 393.4 215.2 393.3C212.5 392.9 209.9 392.4 207.2 391.9C206.6 391.8 206 391.7 205.4 391.5C203.6 391.1 201.8 390.7 200.1 390.3C198.9 390 197.7 389.7 196.6 389.4C196 389.3 195.4 389.1 194.8 388.9C194.2 388.8 193.6 388.6 193 388.4C190.7 387.8 188.3 387.1 186 386.4C183.3 385.6 180.6 384.7 177.9 383.8C176.9 383.5 175.9 383.1 175 382.8C172 381.7 169 380.6 166 379.4C165.5 379.2 164.9 379 164.4 378.7C164 378.5 163.5 378.3 163.1 378.1C162.8 378 162.5 377.8 162.2 377.7C160.3 376.8 158.2 375.8 155.9 374.6C155.5 374.4 155.1 374.2 154.7 374C153.3 373.3 151.9 372.5 150.4 371.7C147.3 370 143.9 368.1 140.4 366C100.4 342.5 39.1001 298.3 24.8001 281.5C24.1001 280.6 23.4001 279.8 22.7001 278.9C22.2001 278.2 21.6001 277.5 21.1001 276.8C20.6001 276.2 20.1001 275.5 19.7001 274.9C19.3001 274.3 18.9001 273.8 18.5001 273.2C18.1001 272.7 17.7001 272.1 17.4001 271.6C17.4001 271.6 17.4001 271.5 17.3001 271.5C16.9001 270.8 16.4001 270.2 16.0001 269.5C15.6001 268.9 15.2001 268.2 14.8001 267.5C14.6001 267.2 14.4001 266.9 14.2001 266.6C13.8001 265.9 13.3001 265.1 12.9001 264.4C12.4001 263.6 12.0001 262.8 11.5001 261.9C10.7001 260.5 10.0001 259 9.3001 257.5C9.1001 257.1 8.9001 256.7 8.8001 256.4C7.4001 253.4 6.1001 250.3 5.1001 247.1C4.7001 246 4.4001 244.9 4.0001 243.8C3.6001 242.4 3.2001 240.9 2.8001 239.5C2.7001 239.2 2.7001 238.9 2.6001 238.6C2.4001 237.8 2.2001 237.1 2.1001 236.3C1.9001 235.2 1.7001 234.2 1.5001 233.1C1.5001 232.8 1.4001 232.6 1.4001 232.3C1.3001 231.8 1.2001 231.2 1.2001 230.6C1.1001 229.9 1.0001 229.3 1.0001 228.6C1.0001 228.4 0.900098 228.2 0.900098 227.9C0.800098 227.3 0.800098 226.8 0.800098 226.2C0.800098 226.1 0.800098 226.1 0.800098 226.1C0.800098 225.4 0.700098 224.7 0.700098 224.1C0.700098 224 0.700098 224 0.700098 223.9C0.700098 223.2 0.700098 222.5 0.600098 221.8C0.600098 220.1 0.600098 218.4 0.700098 216.6C0.700098 215.9 0.800098 215.2 0.900098 214.6C1.0001 213.3 1.2001 211.9 1.4001 210.6C1.5001 209.9 1.6001 209.2 1.7001 208.6C1.9001 207.2 2.2001 205.9 2.6001 204.5C3.5001 200.9 4.7001 197.5 6.1001 194.3C7.2001 191.8 8.4001 189.3 9.7001 187C9.8001 186.8 9.9001 186.6 10.0001 186.4C15.4001 176.9 22.7001 168.5 31.0001 160.7C31.5001 160.3 31.9001 159.8 32.4001 159.4C32.8001 159 33.2001 158.6 33.7001 158.3C34.7001 157.4 35.6001 156.6 36.6001 155.7C36.7001 155.7 36.7001 155.6 36.8001 155.5C38.4001 154.1 39.9001 152.8 41.5001 151.5C43.9001 149.4 46.4001 147.4 48.9001 145.4C49.0001 145.3 49.1001 145.3 49.1001 145.2C51.3001 143.5 53.4001 141.8 55.6001 140.1C56.7001 139.3 57.8001 138.4 58.9001 137.6C61.2001 135.8 63.5001 134 65.8001 132.3C66.7001 131.6 67.6001 130.9 68.4001 130.2C69.4001 129.4 70.3001 128.7 71.3001 127.9C80.3001 120.7 88.0001 113.1 95.2001 105.3C96.6001 103.8 98.0001 102.2 99.3001 100.7C100 100 100.6 99.2 101.2 98.5C110.3 88.1 118.8 77.6 128.3 67.7C130.6 65.3 132.8 63 135.2 60.7C137.2 58.8 139.2 56.9 141.3 55.1C143.7 53 146.2 50.9 148.8 48.9C152.4 46.1 156.1 43.5 160.1 41C161.1 40.4 162 39.8 163 39.2C262.7 -22.8 336.1 -2.50002 385.1 39.2C388.8 42.3 392.3 45.6 395.8 49C397.9 51 399.9 53.1 401.8 55.2C402 55.4 402.2 55.7 402.4 55.9C403.8 57.4 405.1 58.8 406.4 60.3C406.8 60.7 407.2 61.2 407.5 61.6C408.1 62.3 408.6 62.9 409.2 63.6C409.9 64.4 410.6 65.2 411.3 66.1C411.7 66.6 412.2 67.1 412.6 67.7C415.3 71.1 417.9 74.5 420.4 77.9C420.9 78.6 421.4 79.3 421.9 80C425.3 84.8 428.5 89.6 431.4 94.5C431.8 95.2 432.2 95.9 432.6 96.6C433 97.3 433.4 98 433.8 98.7C434.2 99.4 434.6 100.1 435 100.7C435.4 101.4 435.8 102.1 436.2 102.8C436.6 103.5 437 104.2 437.3 104.9C437.7 105.6 438.1 106.3 438.4 106.9C438.8 107.6 439.1 108.3 439.5 108.9C439.9 109.6 440.2 110.2 440.6 110.9C440.9 111.6 441.3 112.2 441.6 112.9C441.9 113.6 442.3 114.2 442.6 114.9C443.9 117.5 445.2 120.1 446.3 122.7C446.9 124 447.5 125.3 448 126.6C450.5 132.3 452.6 137.8 454.4 142.9V143C454.6 143.5 454.7 144 454.9 144.4C455.1 144.9 455.2 145.4 455.4 145.9C455.5 146.3 455.6 146.7 455.8 147C456 147.6 456.2 148.1 456.3 148.7C456.5 149.3 456.7 149.9 456.8 150.5C457.1 151.6 457.5 152.7 457.8 153.9C458.1 154.8 458.3 155.8 458.6 156.8C458.6 157 458.7 157.2 458.7 157.3C458.7 157.4 458.8 157.6 458.8 157.7C458.9 158.3 459.1 158.8 459.2 159.4C459.6 160.9 459.9 162.4 460.2 163.9C460.4 164.7 460.5 165.5 460.7 166.3C460.7 166.4 460.8 166.6 460.8 166.8C460.9 167.6 461.1 168.3 461.2 169.1C461.4 170.1 461.6 171.2 461.7 172.2C461.8 173 461.9 173.8 462.1 174.6C462.1 174.7 462.1 174.8 462.1 175C462.2 175.5 462.2 176.1 462.3 176.6C462.4 177 462.4 177.5 462.5 177.9C462.7 179.5 462.8 181.1 463 182.7C463 183.1 463.1 183.4 463.1 183.8C463.1 184.4 463.2 185 463.2 185.6C463.2 186.3 463.3 186.9 463.3 187.6C463.3 188.1 463.4 188.6 463.4 189.2C463.4 190 463.4 190.7 463.5 191.5C462.8 192 462.9 192.9 462.9 193.8Z" fill="white"/>
</g>
<path opacity="0.2" d="M13.2999 210.3C13.0999 210.1 13.0999 210 13.2999 210.3V210.3Z" fill="#263238"/>
<path opacity="0.2" d="M106.8 201.4C105.8 208.2 100.8 213.7 94.1997 215.9L91.6997 216.7C82.7997 229.3 67.0997 234.7 53.7997 226.9L49.8997 224.6L38.9997 211.6H38.8997C35.3997 212.3 31.4997 211.8 28.9997 209.4C28.5997 211.5 25.7997 212.8 23.8997 211.7C21.9997 210.6 21.7997 207.5 23.4997 206.1C21.2997 208 17.8997 207.2 15.7997 205C15.6997 199.2 16.2997 193.4 17.6997 187.7C18.5997 184.1 19.6997 180.7 21.1997 177.5C22.2997 175 23.4997 172.5 24.7997 170.2C24.8997 170 24.9997 169.8 25.0997 169.6C27.0997 166.1 29.2997 162.8 31.7997 159.6C32.1997 159.2 32.5997 158.8 33.0997 158.5C34.0997 157.6 34.9997 156.8 35.9997 155.9C36.0997 155.9 36.0997 155.8 36.1997 155.7C37.7997 154.3 39.2997 153 40.8997 151.7C43.2997 149.6 45.7997 147.6 48.2997 145.6C48.3997 145.5 48.4997 145.5 48.4997 145.4C50.6997 143.7 52.7997 142 54.9997 140.3C56.0997 139.5 57.1997 138.6 58.2997 137.8C58.9997 137.9 59.5997 138 60.1997 138.2C62.8997 139.1 63.2997 141.6 65.1997 143.3C67.6997 145.5 69.9997 141.8 73.7997 141.9C85.4997 142.3 80.8997 154.2 86.5997 152.7C111.2 146.2 107 177.6 96.3997 184.5C102.6 189.8 108 193.3 106.8 201.4Z" fill="black"/>
<path d="M54.0001 231.3C76.8647 231.3 95.4001 212.988 95.4001 190.4C95.4001 167.812 76.8647 149.5 54.0001 149.5C31.1355 149.5 12.6001 167.812 12.6001 190.4C12.6001 212.988 31.1355 231.3 54.0001 231.3Z" fill="white" stroke="#263238" stroke-miterlimit="10"/>
<path d="M54.0002 226C74.8766 226 91.8002 209.3 91.8002 188.7C91.8002 168.1 74.8766 151.4 54.0002 151.4C33.1238 151.4 16.2002 168.1 16.2002 188.7C16.2002 209.3 33.1238 226 54.0002 226Z" fill="#263238" stroke="white" stroke-miterlimit="10"/>
<path d="M13.4 203.4C11 204.9 10.3 209.9 12.2 212C14.1 214.1 17.7 212.5 18.4 209.1C18.7 210 19.9 210.2 20.4 209.4C20.8 208.8 20.8 207.9 20.5 207.3C20.3 207.1 20.4 207 20.5 207.3C21.7 208.3 23.8 207.2 24.1 205.1C23.2 210.6 28.2 215.4 31.9 212.6C30.8 214.9 32.2 218 34.1 218.6C36 219.2 38 218.1 39.9 216.8C41.7 215.6 43.6 214.1 45.6 214C47.3 213.9 48.9 214.9 50.6 215.5C55.9 217.3 62 214.9 66 209.4C68.7 213.9 75.2 212.3 77 206.6C77.4 209.3 79.2 211.3 81.2 211.3C83.2 211.3 85.3 209.4 86 206.7C86 209.2 88.3 210.4 89.9 208.8C91.9 206.7 93.2 203 92.2 199.9C94.9 199.8 97.6 196.6 98 193C98.4 189.3 96.6 185.7 93.9 184.9C98.4 183 101.9 176.9 102.1 170.6C102.3 164.3 99 158.5 94.6 157C92.9 156.4 90.9 156.6 89.5 158.1C89 154.5 87.4 151.3 85 149.7C81.2 147.1 75.9 148.9 73.1 153.7C74.5 151.2 74.6 147.7 73.3 145.3C72 143 69.5 142 67.4 143.1C66.9 139.3 64 136.5 61.1 137.3C58.2 138 55.9 142.1 56.1 146C55.8 142.9 52.1 142.1 50.8 144.7C50.9 144.9 50.7 144.8 50.8 144.7C49 140.8 45.2 138.9 41.8 140C38.1 141.2 35 145.8 34.5 150.9C32 148.6 28.2 148.7 25.5 151.1C22.8 153.6 21.2 158.2 21.7 162.4C18.8 159.6 14 161.1 12 165.5C9.99996 169.9 11.4 176.1 14.7 177.9C12.4 178.2 10.4 181.3 10.4 184.4C10.4 187.5 12.4 190.1 14.7 190C12.4 190.2 10.2 192.9 9.89996 196.1C9.59996 199.6 11.2 202.8 13.4 203.4Z" fill="#03372B"/>
<g opacity="0.2">
<g opacity="0.2">
<path opacity="0.2" d="M51.5002 189.1C50.3002 188.1 48.9002 187.7 47.5002 188.1C46.1002 188.5 44.8002 190 44.5002 191.8C44.2002 193.6 45.0002 195.6 46.4002 195.9C48.1002 196.3 49.8002 194.4 51.5002 194.6C52.1002 194.7 52.7002 195 53.3002 195.2C55.8002 195.9 58.3002 193.7 60.4002 191.6C61.1002 190.9 61.9002 190.1 62.4002 189.1C62.9002 188.1 63.1002 186.8 62.7002 185.8C62.1002 184.5 60.6002 184.3 59.3002 184.6C56.8002 185.1 54.3002 186.6 52.3002 188.7C52.4002 188.2 52.4002 187.7 52.5002 187.2L51.5002 189.1Z" fill="white"/>
</g>
<g opacity="0.2">
<path opacity="0.2" d="M87.6002 184.2C86.9002 183.6 86.3002 183.1 85.5002 182.9C84.7002 182.7 83.8002 183 83.2002 183.8C82.5002 185 82.9002 186.7 83.8002 187.6C84.7002 188.4 85.8002 188.6 86.9002 188.8C88.0002 189 89.5002 188.9 90.1002 187.6C90.5002 186.6 90.2002 185.4 89.6002 184.7C89.0002 184 88.2002 183.7 87.4002 183.4L87.6002 184.2Z" fill="white"/>
</g>
<g opacity="0.2">
<path opacity="0.2" d="M31.0001 163.7C28.7001 165.1 26.9001 167.9 26.3001 171C26.1001 171.9 26.1001 173.1 26.8001 173.6C27.2001 173.9 27.8001 173.7 28.4001 173.6C30.6001 172.8 32.8001 172 35.0001 171.2C33.9001 171.8 32.8001 172.4 32.0001 173.4C31.1001 174.4 30.5001 175.9 30.8001 177.3C31.1001 178.9 32.5001 179.8 33.8001 179.7C35.1001 179.6 36.4001 178.7 37.5001 177.6C38.7001 176.5 39.8001 175 39.9001 173.1C40.0001 171.3 38.2001 169.7 37.1001 171C39.6001 170 42.1001 168.4 44.3001 166.5C45.1001 165.8 45.9001 165 46.4001 163.9C46.9001 162.8 47.1001 161.5 46.7001 160.5C44.5001 155.4 41.5001 163.3 40.1001 164C37.3001 165.5 34.4001 161.8 31.0001 163.7Z" fill="white"/>
<path opacity="0.2" d="M20.4 186.7C20.1 187.7 20.3 189 20.9 189.6C21.5 190.2 22.7 189.9 23 188.9C21.5 189.6 19.9 190.3 19 192C18.1 193.6 18.2 196.4 19.7 196.9C20.6 197.2 21.6 196.6 22.5 196C24.9 194.2 27.2 192.1 29.4 189.9C28.7 191.9 30.2 194 31.9 194C33.5 194.1 35.1 192.9 36.5 191.7C38.3 190.3 40.3 188.1 39.9 185.6C39.5 183.4 37.4 182.6 35.7 183.3C34 184 32.7 185.9 31.5 187.6C32.5 185.8 31.2 183.3 29.6 183.2C28 183 26.4 184.3 25.4 185.9C27.3 184.5 27.7 181.1 25.3 180.9C23.6 180.6 20.8 185 20.4 186.7Z" fill="white"/>
<path opacity="0.2" d="M70.9 176.1C69.5 175.5 67.8 176.8 67.4 178.6C67 180.4 67.9999 182.5 69.4999 182.7C68.3999 182.9 67.3999 183.6 66.6999 184.7C66.2999 185.3 65.9999 186.1 66.0999 186.8C66.1999 187.9 67.0999 188.6 67.9999 188.6C68.8999 188.6 69.7999 188 70.5999 187.5C69.6999 187.7 68.7999 187.8 68.0999 188.6C67.3999 189.3 67.0999 190.8 67.6999 191.6C68.1999 192.2 69.1 192.1 69.8 191.8C71.4 191.1 72.8999 190 74.1999 188.4C75.0999 189.6 76.4 190.5 77.8 190.1C79.2 189.7 80.3 187.8 79.9 186.2C79.6 185 78.6999 184.4 77.6999 184.3C76.6999 184.2 75.8 184.6 74.8 185C75.8 184.1 76.7999 183.1 77.1999 181.6C77.5999 180.2 76.8999 178.3 75.6999 178.5C74.3999 178.7 73.6999 181 72.5999 181.9C71.1999 180.5 73.7 177.2 70.9 176.1Z" fill="white"/>
<g opacity="0.2">
<path opacity="0.2" d="M47.4999 170.6C45.9999 172 45.3999 174.5 45.4999 176.8C45.5999 179.3 46.3999 182 48.1999 182.9C50.5999 184.1 53.5999 181.4 54.0999 178.1C54.5999 174.8 52.9999 171.6 50.6999 170.2C50.6999 170.1 48.9999 169.2 47.4999 170.6Z" fill="white"/>
</g>
<g opacity="0.2">
<path opacity="0.2" d="M64.1999 166.9C64.3999 167.1 64.5999 167.3 64.7999 167.5C63.7999 165.9 61.6999 165.8 60.4999 167.3C59.2999 168.8 59.1999 171.5 60.3999 172.9C61.5999 174.2 63.6999 173.9 64.7999 172.2C66.4999 173.1 68.7999 172.6 69.9999 170.6C71.1999 168.7 70.9999 165.4 69.3999 164.3C67.7999 163.2 65.1999 165.2 65.3999 167.6C65.1999 167.3 64.8999 167 64.6999 166.6L64.1999 166.9Z" fill="white"/>
</g>
<g opacity="0.2">
<path opacity="0.2" d="M82.5 169.5C81.3 171.1 80 172.7 79.6 174.8C79.1 176.9 79.8 179.4 81.4 179.8C83 180.2 84.5 178.4 85.5 176.6C86.3 175 87 173 86.6 171.2C86.2 169.4 84.2 168.5 83.1 169.9L82.5 169.5Z" fill="white"/>
</g>
<path opacity="0.2" d="M56.3001 158.8C55.7001 157.1 53.8001 156.6 52.6001 157.7C51.3001 158.8 50.8001 161 51.3001 162.7C51.8001 164.4 53.2001 165.5 54.6001 165.6C56.4001 165.7 58.6001 163.7 58.2001 161.5C59.0001 162.8 60.3001 163.2 61.6001 163C62.9001 162.8 64.1001 161.9 65.2001 161.1C66.7001 159.9 68.4001 158.1 68.3001 155.9C68.2001 154.1 66.9001 152.9 65.5001 152.8C64.1001 152.7 62.7001 153.6 61.6001 154.8C60.7001 155.8 60.0001 156.9 59.1001 157.8C58.2001 158.7 56.9001 159.2 56.0001 158.5L56.3001 158.8Z" fill="white"/>
</g>
</g>
<path d="M357.5 220.8H126.8V317.9H357.5V220.8Z" fill="#03372B" stroke="#263238" stroke-miterlimit="10" stroke-linecap="round" stroke-linejoin="round"/>
<path d="M153.3 226.6H131.6V238.6H153.3V226.6Z" fill="white" stroke="#263238" stroke-miterlimit="10"/>
<path d="M352.2 285.2H318V297.2H352.2V285.2Z" fill="white" stroke="#263238" stroke-miterlimit="10"/>
<path d="M352.2 241.6H331.1V253.6H352.2V241.6Z" fill="white" stroke="#263238" stroke-miterlimit="10"/>
<path d="M153.3 270.4H131.6V282.4H153.3V270.4Z" fill="white" stroke="#263238" stroke-miterlimit="10"/>
<path d="M149.2 255.9H131.6V267.9H149.2V255.9Z" fill="white" stroke="#263238" stroke-miterlimit="10"/>
<path d="M143.6 241.3H131.6V253.3H143.6V241.3Z" fill="white" stroke="#263238" stroke-miterlimit="10"/>
<path d="M159 241.3H147V253.3H159V241.3Z" fill="white" stroke="#263238" stroke-miterlimit="10"/>
<path d="M174.3 241.3H162.3V253.3H174.3V241.3Z" fill="white" stroke="#263238" stroke-miterlimit="10"/>
<path d="M189.6 241.3H177.6V253.3H189.6V241.3Z" fill="white" stroke="#263238" stroke-miterlimit="10"/>
<path d="M205 241.3H193V253.3H205V241.3Z" fill="white" stroke="#263238" stroke-miterlimit="10"/>
<path d="M220.3 241.3H208.3V253.3H220.3V241.3Z" fill="white" stroke="#263238" stroke-miterlimit="10"/>
<path d="M235.6 241.3H223.6V253.3H235.6V241.3Z" fill="white" stroke="#263238" stroke-miterlimit="10"/>
<path d="M251 241.3H239V253.3H251V241.3Z" fill="white" stroke="#263238" stroke-miterlimit="10"/>
<path d="M266.3 241.3H254.3V253.3H266.3V241.3Z" fill="white" stroke="#263238" stroke-miterlimit="10"/>
<path d="M281.6 241.3H269.6V253.3H281.6V241.3Z" fill="white" stroke="#263238" stroke-miterlimit="10"/>
<path d="M297 241.3H285V253.3H297V241.3Z" fill="white" stroke="#263238" stroke-miterlimit="10"/>
<path d="M312.3 241.3H300.3V253.3H312.3V241.3Z" fill="white" stroke="#263238" stroke-miterlimit="10"/>
<path d="M327.6 241.3H315.6V253.3H327.6V241.3Z" fill="white" stroke="#263238" stroke-miterlimit="10"/>
<path d="M143.6 300H131.6V312H143.6V300Z" fill="white" stroke="#263238" stroke-miterlimit="10"/>
<path d="M159 300H147V312H159V300Z" fill="white" stroke="#263238" stroke-miterlimit="10"/>
<path d="M174.3 300H162.3V312H174.3V300Z" fill="white" stroke="#263238" stroke-miterlimit="10"/>
<path d="M192.3 300H177.6V312H192.3V300Z" fill="white" stroke="#263238" stroke-miterlimit="10"/>
<path d="M268.9 300H195.6V312H268.9V300Z" fill="white" stroke="#263238" stroke-miterlimit="10"/>
<path d="M305.6 300H293.6V312H305.6V300Z" fill="white" stroke="#263238" stroke-miterlimit="10"/>
<path d="M321 300H309V312H321V300Z" fill="white" stroke="#263238" stroke-miterlimit="10"/>
<path d="M336.3 300H324.3V312H336.3V300Z" fill="white" stroke="#263238" stroke-miterlimit="10"/>
<path d="M290.7 300H272V312H290.7V300Z" fill="white" stroke="#263238" stroke-miterlimit="10"/>
<path d="M352.1 300H340.1V312H352.1V300Z" fill="white" stroke="#263238" stroke-miterlimit="10"/>
<path d="M164.6 255.9H152.6V267.9H164.6V255.9Z" fill="white" stroke="#263238" stroke-miterlimit="10"/>
<path d="M180 255.9H168V267.9H180V255.9Z" fill="white" stroke="#263238" stroke-miterlimit="10"/>
<path d="M195.3 255.9H183.3V267.9H195.3V255.9Z" fill="white" stroke="#263238" stroke-miterlimit="10"/>
<path d="M210.6 255.9H198.6V267.9H210.6V255.9Z" fill="white" stroke="#263238" stroke-miterlimit="10"/>
<path d="M226 255.9H214V267.9H226V255.9Z" fill="white" stroke="#263238" stroke-miterlimit="10"/>
<path d="M241.3 255.9H229.3V267.9H241.3V255.9Z" fill="white" stroke="#263238" stroke-miterlimit="10"/>
<path d="M256.6 255.9H244.6V267.9H256.6V255.9Z" fill="white" stroke="#263238" stroke-miterlimit="10"/>
<path d="M272 255.9H260V267.9H272V255.9Z" fill="white" stroke="#263238" stroke-miterlimit="10"/>
<path d="M287.3 255.9H275.3V267.9H287.3V255.9Z" fill="white" stroke="#263238" stroke-miterlimit="10"/>
<path d="M302.6 255.9H290.6V267.9H302.6V255.9Z" fill="white" stroke="#263238" stroke-miterlimit="10"/>
<path d="M318 255.9H306V267.9H318V255.9Z" fill="white" stroke="#263238" stroke-miterlimit="10"/>
<path d="M333.3 255.9H321.3V267.9H333.3V255.9Z" fill="white" stroke="#263238" stroke-miterlimit="10"/>
<path d="M352.2 255.9V282.6H340.1V267.9H336.6V255.9H352.2Z" fill="white" stroke="#263238" stroke-miterlimit="10"/>
<path d="M168.1 270.6H156.1V282.6H168.1V270.6Z" fill="white" stroke="#263238" stroke-miterlimit="10"/>
<path d="M183.5 270.6H171.5V282.6H183.5V270.6Z" fill="white" stroke="#263238" stroke-miterlimit="10"/>
<path d="M198.8 270.6H186.8V282.6H198.8V270.6Z" fill="white" stroke="#263238" stroke-miterlimit="10"/>
<path d="M214.1 270.6H202.1V282.6H214.1V270.6Z" fill="white" stroke="#263238" stroke-miterlimit="10"/>
<path d="M229.5 270.6H217.5V282.6H229.5V270.6Z" fill="white" stroke="#263238" stroke-miterlimit="10"/>
<path d="M244.8 270.6H232.8V282.6H244.8V270.6Z" fill="white" stroke="#263238" stroke-miterlimit="10"/>
<path d="M260.1 270.6H248.1V282.6H260.1V270.6Z" fill="white" stroke="#263238" stroke-miterlimit="10"/>
<path d="M275.5 270.6H263.5V282.6H275.5V270.6Z" fill="white" stroke="#263238" stroke-miterlimit="10"/>
<path d="M290.8 270.6H278.8V282.6H290.8V270.6Z" fill="white" stroke="#263238" stroke-miterlimit="10"/>
<path d="M306.1 270.6H294.1V282.6H306.1V270.6Z" fill="white" stroke="#263238" stroke-miterlimit="10"/>
<path d="M321.5 270.6H309.5V282.6H321.5V270.6Z" fill="white" stroke="#263238" stroke-miterlimit="10"/>
<path d="M336.8 270.6H324.8V282.6H336.8V270.6Z" fill="white" stroke="#263238" stroke-miterlimit="10"/>
<path d="M161.6 285.2H149.6V297.2H161.6V285.2Z" fill="white" stroke="#263238" stroke-miterlimit="10"/>
<path d="M177 285.2H165V297.2H177V285.2Z" fill="white" stroke="#263238" stroke-miterlimit="10"/>
<path d="M192.3 285.2H180.3V297.2H192.3V285.2Z" fill="white" stroke="#263238" stroke-miterlimit="10"/>
<path d="M207.6 285.2H195.6V297.2H207.6V285.2Z" fill="white" stroke="#263238" stroke-miterlimit="10"/>
<path d="M223 285.2H211V297.2H223V285.2Z" fill="white" stroke="#263238" stroke-miterlimit="10"/>
<path d="M238.3 285.2H226.3V297.2H238.3V285.2Z" fill="white" stroke="#263238" stroke-miterlimit="10"/>
<path d="M253.6 285.2H241.6V297.2H253.6V285.2Z" fill="white" stroke="#263238" stroke-miterlimit="10"/>
<path d="M269 285.2H257V297.2H269V285.2Z" fill="white" stroke="#263238" stroke-miterlimit="10"/>
<path d="M284.3 285.2H272.3V297.2H284.3V285.2Z" fill="white" stroke="#263238" stroke-miterlimit="10"/>
<path d="M299.6 285.2H287.6V297.2H299.6V285.2Z" fill="white" stroke="#263238" stroke-miterlimit="10"/>
<path d="M315 285.2H303V297.2H315V285.2Z" fill="white" stroke="#263238" stroke-miterlimit="10"/>
<path d="M168.1 227.4H156.1V239.4H168.1V227.4Z" fill="white" stroke="#263238" stroke-miterlimit="10"/>
<path d="M183.5 227.4H171.5V239.4H183.5V227.4Z" fill="white" stroke="#263238" stroke-miterlimit="10"/>
<path d="M198.8 227.4H186.8V239.4H198.8V227.4Z" fill="white" stroke="#263238" stroke-miterlimit="10"/>
<path d="M214.1 227.4H202.1V239.4H214.1V227.4Z" fill="white" stroke="#263238" stroke-miterlimit="10"/>
<path d="M229.5 227.4H217.5V239.4H229.5V227.4Z" fill="white" stroke="#263238" stroke-miterlimit="10"/>
<path d="M244.8 227.4H232.8V239.4H244.8V227.4Z" fill="white" stroke="#263238" stroke-miterlimit="10"/>
<path d="M260.1 227.4H248.1V239.4H260.1V227.4Z" fill="white" stroke="#263238" stroke-miterlimit="10"/>
<path d="M275.5 227.4H263.5V239.4H275.5V227.4Z" fill="white" stroke="#263238" stroke-miterlimit="10"/>
<path d="M290.8 227.4H278.8V239.4H290.8V227.4Z" fill="white" stroke="#263238" stroke-miterlimit="10"/>
<path d="M306.1 227.4H294.1V239.4H306.1V227.4Z" fill="white" stroke="#263238" stroke-miterlimit="10"/>
<path d="M321.5 227.4H309.5V239.4H321.5V227.4Z" fill="white" stroke="#263238" stroke-miterlimit="10"/>
<path d="M336.8 227.4H324.8V239.4H336.8V227.4Z" fill="white" stroke="#263238" stroke-miterlimit="10"/>
<path d="M352.1 227.4H340.1V239.4H352.1V227.4Z" fill="white" stroke="#263238" stroke-miterlimit="10"/>
<path d="M146.2 285.2H131.6V297.2H146.2V285.2Z" fill="white" stroke="#263238" stroke-miterlimit="10"/>
<path d="M126.8 221.4L131.6 219.8H354.4L357.5 221.4H126.8Z" fill="#263238"/>
<path opacity="0.2" d="M291.5 388L286.8 359.8C285.8 355.6 283.6 351.8 280.4 348.7C271.1 339.7 258.7 330.5 258.2 318.7C257.4 300.7 254.6 301.2 254.9 296.8C254.9 296.6 256.3 294.7 258.1 290.2C258.7 288.8 259.1 286.6 259.5 284.9C259.9 283.1 261.7 281.8 263.5 282.1C264.8 282.3 266 282.8 266.9 283.7C268.6 285.4 269.4 287.8 269.4 290.2C269.5 292.6 268.9 294.9 268.4 297.3C270.1 301.1 270.9 305.6 271.4 309.7C272.5 306.4 273.3 303.1 274.3 299.8C274.5 299.7 274.4 299.4 274.7 299.3C273.2 296.1 274.5 296.2 271.5 289.1C266.5 277.1 260.9 265.5 256.9 250.5C256.6 249.3 256.6 247.4 257 246.3C258.5 242 262.9 243 264.8 245.5C265.3 246.2 265.7 246.9 266 247.7C268 253.1 272.4 261.3 275.6 266.1L286.5 282.7C286.5 282.7 290.3 279.6 290.9 278.2C291.5 276.8 291.8 265.5 291.8 265.5C291.8 265.5 290.9 267.6 289 267.5C287.6 267.4 284.8 268.2 282.8 266C281.2 264.2 281.2 261.4 282.6 259.5L287.5 252.8C287.5 252.8 290.8 249.9 295.2 251.9C299.6 253.9 303.9 258 303.9 258C303.9 258 308 257.8 311.5 259.5C315 261.2 318.6 266 318.6 266C318.6 266 322.7 266.2 324.5 267.6C325 267.9 331.2 277.6 328.9 285.1C327.6 289.6 326.7 296.1 326.1 297.9L323 342L329.1 371L316 378.3C311.2 381 306.1 383.3 300.9 385.1L291.5 388Z" fill="black"/>
<path d="M328.8 336.5L328.9 292.3C329.4 290.5 329.8 284 330.8 279.4C332.5 271.7 325.7 262.5 325.2 262.2C323.3 261 319.2 261 319.2 261C319.2 261 315.2 256.4 311.6 255C308 253.6 303.9 254 303.9 254C303.9 254 299.4 250.2 294.8 248.5C290.3 246.8 287.1 249.9 287.1 249.9L282.6 256.9C281.3 259 281.5 261.7 283.2 263.4C285.3 265.5 288.1 264.5 289.5 264.5C291.4 264.5 292.1 262.3 292.1 262.3C292.1 262.3 292.6 273.6 292.1 275C291.6 276.4 288 279.8 288 279.8L276 264C272.5 259.4 267.6 251.4 265.2 246.2C264.8 245.4 264.4 244.7 263.9 244.1C261.8 241.7 257.3 241 256.1 245.4C255.8 246.6 255.9 248.5 256.3 249.6C261.3 264.4 267.7 275.5 273.5 287.2C277 294.1 275.7 294 277.4 297.2C277.2 297.3 277.3 297.6 277.1 297.7C276.3 301.1 275.7 304.4 274.8 307.8C274 303.8 272.9 299.3 271 295.6C271.4 293.2 271.8 290.9 271.5 288.5C271.3 286.1 270.4 283.7 268.5 282.2C267.6 281.4 266.3 280.9 265 280.8C263.1 280.7 261.4 282 261.2 283.9C260.9 285.7 260.7 287.8 260.2 289.3C258.7 293.9 257.4 295.9 257.4 296.1C257.4 300.6 260.2 299.8 262.2 317.8C263.8 331.8 281.8 341 291.6 351.1L302 384C314.1 379.1 325.7 372.9 336.9 365.7L328.8 336.5Z" fill="white"/>
<path d="M323.7 276.4C324.2 275.1 324.9 273.8 326 272.9C327.1 272 328.9 272 329.8 273C329.1 270.7 328.3 268.4 327.4 266.2C326.8 264.5 326 262.7 324.6 261.5C323.2 260.3 320.8 260.1 319.6 261.5C320.5 266.7 320.6 272.1 319.9 277.3C319.5 280.1 319.1 283.4 321 285.5C321.5 285.9 322.4 285.2 322.1 284.6C321.9 284.3 321.4 284.3 321.1 284.3C321.8 281.7 322.6 279 323.7 276.4Z" fill="#03372B"/>
<path d="M323.7 276.4C324.2 275.1 324.9 273.8 326 272.9C327.1 272 328.9 272 329.8 273C329.1 270.7 328.3 268.4 327.4 266.2C326.8 264.5 326 262.7 324.6 261.5C323.2 260.3 320.8 260.1 319.6 261.5C320.5 266.7 320.6 272.1 319.9 277.3C319.5 280.1 319.1 283.4 321 285.5C321.5 285.9 322.4 285.2 322.1 284.6C321.9 284.3 321.4 284.3 321.1 284.3C321.8 281.7 322.6 279 323.7 276.4Z" fill="#03372B"/>
<path opacity="0.5" d="M323.7 276.4C324.2 275.1 324.9 273.8 326 272.9C327.1 272 328.9 272 329.8 273C329.1 270.7 328.3 268.4 327.4 266.2C326.8 264.5 326 262.7 324.6 261.5C323.2 260.3 320.8 260.1 319.6 261.5C320.5 266.7 320.6 272.1 319.9 277.3C319.5 280.1 319.1 283.4 321 285.5C321.5 285.9 322.4 285.2 322.1 284.6C321.9 284.3 321.4 284.3 321.1 284.3C321.8 281.7 322.6 279 323.7 276.4Z" fill="white"/>
<path d="M307.7 271.7C307.8 273.6 307.8 275.6 308.2 277.4C308.7 279.3 309.7 281.1 311.4 282C310.4 278.3 310.9 274.3 311.5 270.5C311.8 268.2 312.2 265.9 312.5 263.5C312.6 262.7 312.7 261.9 313.2 261.2C313.7 260.5 314.6 260.1 315.3 260.4C314.3 261 313 260.2 312.4 259.2C311.8 258.2 311.6 257 310.9 256.1C309.6 254.4 306.7 254 304.7 254.5C305.4 260.3 307.5 265.8 307.7 271.7Z" fill="#03372B"/>
<path d="M307.7 271.7C307.8 273.6 307.8 275.6 308.2 277.4C308.7 279.3 309.7 281.1 311.4 282C310.4 278.3 310.9 274.3 311.5 270.5C311.8 268.2 312.2 265.9 312.5 263.5C312.6 262.7 312.7 261.9 313.2 261.2C313.7 260.5 314.6 260.1 315.3 260.4C314.3 261 313 260.2 312.4 259.2C311.8 258.2 311.6 257 310.9 256.1C309.6 254.4 306.7 254 304.7 254.5C305.4 260.3 307.5 265.8 307.7 271.7Z" fill="#03372B"/>
<g opacity="0.5">
<path opacity="0.5" d="M307.7 271.7C307.8 273.6 307.8 275.6 308.2 277.4C308.7 279.3 309.7 281.1 311.4 282C310.4 278.3 310.9 274.3 311.5 270.5C311.8 268.2 312.2 265.9 312.5 263.5C312.6 262.7 312.7 261.9 313.2 261.2C313.7 260.5 314.6 260.1 315.3 260.4C314.3 261 313 260.2 312.4 259.2C311.8 258.2 311.6 257 310.9 256.1C309.6 254.4 306.7 254 304.7 254.5C305.4 260.3 307.5 265.8 307.7 271.7Z" fill="white"/>
</g>
<path d="M291.4 256.2C290.8 255.7 290.5 254.9 290.3 254.1C290.1 253.3 289.8 252.5 289.1 252.1C286 254 287.7 259.8 284.6 261.7C284 262.1 283.2 262.3 282.9 262.9C282.6 263.5 282.8 264.2 283.2 264.7C283.6 265.2 284.3 265.4 284.9 265.5C287.4 265.9 290 264.7 291.4 262.7C292.6 261 293.5 258.3 292.9 256.3C292.5 256.5 291.9 256.6 291.4 256.2Z" fill="#03372B"/>
<path d="M259.5 293.6C259.4 293.8 259.4 294.1 259.6 294.2C259.9 294.4 260.2 294.1 260.4 293.8C261.7 292 264.2 291.1 266.4 291.9C267.2 291.9 267.5 290.7 267 290C266.5 289.3 265.6 289.3 264.8 289.3C264 289.3 263.1 289.3 262.4 288.9C261.6 288.4 261.2 287.3 261.4 286.4C260.8 288.8 260.1 291.2 259.5 293.6Z" fill="#03372B"/>
<g opacity="0.5">
<path opacity="0.5" d="M291.4 256.2C290.8 255.7 290.5 254.9 290.3 254.1C290.1 253.3 289.8 252.5 289.1 252.1C286 254 287.7 259.8 284.6 261.7C284 262.1 283.2 262.3 282.9 262.9C282.6 263.5 282.8 264.2 283.2 264.7C283.6 265.2 284.3 265.4 284.9 265.5C287.4 265.9 290 264.7 291.4 262.7C292.6 261 293.5 258.3 292.9 256.3C292.5 256.5 291.9 256.6 291.4 256.2Z" fill="white"/>
<path opacity="0.5" d="M259.5 293.6C259.4 293.8 259.4 294.1 259.6 294.2C259.9 294.4 260.2 294.1 260.4 293.8C261.7 292 264.2 291.1 266.4 291.9C267.2 291.9 267.5 290.7 267 290C266.5 289.3 265.6 289.3 264.8 289.3C264 289.3 263.1 289.3 262.4 288.9C261.6 288.4 261.2 287.3 261.4 286.4C260.8 288.8 260.1 291.2 259.5 293.6Z" fill="white"/>
</g>
<path d="M300.2 255.5C298.5 255.3 296.6 255.2 295.1 254.3C293.2 253.2 291.9 250.8 289.7 250.7C287.7 250.6 286.3 252.4 285.2 254C285.1 251.6 286.9 249.3 289.1 248.4C291.4 247.5 294 247.8 296.3 248.7C298.6 249.6 300.6 251.1 302.5 252.6C303.3 253.2 304.1 253.8 304.6 254.6C307 258.5 301.7 255.7 300.2 255.5Z" fill="#03372B"/>
<path opacity="0.5" d="M300.2 255.5C298.5 255.3 296.6 255.2 295.1 254.3C293.2 253.2 291.9 250.8 289.7 250.7C287.7 250.6 286.3 252.4 285.2 254C285.1 251.6 286.9 249.3 289.1 248.4C291.4 247.5 294 247.8 296.3 248.7C298.6 249.6 300.6 251.1 302.5 252.6C303.3 253.2 304.1 253.8 304.6 254.6C307 258.5 301.7 255.7 300.2 255.5Z" fill="white"/>
<path d="M268.9 312.3C269 312.1 269.1 311.9 269.2 311.6C269 311.8 268.9 312 268.9 312.3Z" fill="#03372B"/>
<path d="M271.9 296.8C271.7 294.3 272.1 291.9 272 289.4C271.9 286.9 271.3 284.3 269.5 282.6C266.9 280.2 259.9 281.4 262.2 286C262.9 287.3 264.6 287.9 265.9 287.4C267.2 286.8 267.9 285 267.1 283.8C270 288.1 269.7 294.3 266.5 298.4C270.2 301.6 271.3 307.3 269.3 311.7C269.7 311.4 270.5 311.3 270.9 311.7C271.6 312.2 271.8 313.2 272.2 314C272.5 314.8 273.2 315.6 274.1 315.6C275.3 312.7 274.9 309.3 274.1 306.2C273.3 303 272.1 300 271.9 296.8Z" fill="#03372B"/>
<path d="M297.8 250.4C296.4 249.3 294.8 248.6 293.1 248.4L297.8 250.4Z" fill="#03372B"/>
<path d="M309.5 281.7C309.1 280 308.3 278.4 307.9 276.7C306.8 272.8 307.5 268.6 307 264.6C306.4 259.4 303.6 254.5 299.6 251.1L297.8 250.3C299.5 251.6 300.8 253.5 301.4 255.5C302.8 260.3 303.2 265.3 303.8 270.2C304.7 277.8 306.1 285.4 308 292.8C309.1 289.3 310.4 285.5 309.5 281.7Z" fill="#03372B"/>
<path d="M290.5 263.9C291.7 262.9 292.4 261.4 292.6 259.8C292.8 258.4 292.7 257 292.5 255.6C292.4 256.2 291.6 256.7 290.9 256.5C290 256.3 289.5 255.5 289 254.8C288.9 255.2 288.8 255.6 288.6 256.1C288.6 255.9 288.5 255.6 288.5 255.4L288 256C288.7 258 289.4 260.3 288.3 262.2C287.8 263.1 286.9 263.7 286 264.3C287.4 265.2 289.2 264.9 290.5 263.9Z" fill="#03372B"/>
<path d="M292.4 255.1C292.4 255.3 292.4 255.4 292.5 255.6C292.5 255.4 292.5 255.3 292.4 255.1Z" fill="#03372B"/>
<path d="M287.2 275.3C283.7 268.4 280.2 261.5 276.3 254.8C274 250.9 271.7 247 268.7 243.6C267.4 242.1 263.5 238.6 261.4 240.9C260 242.4 261.8 245.2 260.1 246.8C260.5 246.8 262.5 246.6 262.7 246.9C267.1 252.3 269.5 259.3 269.4 266.3C270.8 265.2 272.7 266.7 273.8 268.1C280.6 276.8 286.9 285.9 292.8 295.2C291.7 291.1 291.6 286.7 290.4 282.6C289.6 280.2 288.4 277.7 287.2 275.3Z" fill="#03372B"/>
<path d="M327.9 292.1C329.6 287.6 330.9 283 331 278.3C331.1 274 330.1 269.5 327.9 265.8C327.3 264.9 324.9 261 323.6 261.3C321.3 261.9 324.3 265.9 324.9 267C326.9 270.8 329 274.9 328.9 279.3C328.8 282.7 327.4 285.8 326.3 289C325.5 291.2 324.9 293.6 324.9 295.9C324.7 296.2 324.6 296.4 324.4 296.7C322.8 298.7 320.7 300.4 318.1 300.8C319.1 297.8 320 294.8 321 291.8C321.3 290.7 321.5 289.3 320.9 288.5C321.1 288.1 321.2 287.7 321.2 287.2C321.2 286.4 320.7 285.6 320.4 284.9C319.1 282 319.5 278.7 319.8 275.5C320.2 271.6 320.4 267.6 319.2 263.8C318.1 260.1 315.4 256.6 311.7 255.3C312 255.6 312.3 256 312.7 256.3L311.4 255.4C312.2 257 313 258.7 313.7 260.3C313.4 260.7 313.1 261.1 312.8 261.5C314.1 260.8 315.7 261.8 316.3 263.1C316.9 264.4 316.7 266 316.6 267.4C315.8 275.5 316.2 283.7 317.8 291.7C317.7 293.6 317.3 295.4 316.4 297C315.4 298.7 313.4 300 311.4 299.7C311.8 297.8 311.1 295.5 309.5 294.4C307.5 297.2 308.7 301.5 309 304.7C309.5 309.5 310.2 314.3 311.3 319.1C311.6 315 312.5 310.9 313.9 307.1C315 311 316.1 315 317.2 318.9C317.2 317.8 317.3 316.6 317.8 315.7C318.3 314.7 319.5 314 320.6 314.4C321.4 314.7 321.9 315.6 322.3 316.5C325.1 323.3 325.8 330.9 324.3 338.1C325.6 338.8 327.4 337.9 328.2 336.6C328.9 335.3 328.9 333.6 328.9 332.1C328.4 318.8 328.2 305.5 327.9 292.1Z" fill="#03372B"/>
<path d="M294 296.4C293.4 297.5 296 302 296.4 303C298.6 308.4 300.8 313.8 303 319.1C302.3 312 300.5 305 297.9 298.4C297.5 297.4 295.3 294.1 294 296.4Z" fill="#03372B"/>
<path d="M297.4 267.8C297 268.4 296.5 269.1 295.8 268.9C295.2 268.7 295.1 267.9 295.1 267.3C295.2 263.6 295.2 259.8 295.3 256.1C292.3 258.3 292.7 261.1 292.5 264.3C292.4 266.2 292.9 275.1 291.6 276.2C294.6 273.7 297.1 270.6 299 267.1C298.6 266.7 297.8 267.3 297.4 267.8Z" fill="#03372B"/>
<g opacity="0.5">
<path opacity="0.5" d="M268.9 312.3C269 312.1 269.1 311.9 269.2 311.6C269 311.8 268.9 312 268.9 312.3Z" fill="white"/>
<path opacity="0.5" d="M271.9 296.8C271.7 294.3 272.1 291.9 272 289.4C271.9 286.9 271.3 284.3 269.5 282.6C266.9 280.2 259.9 281.4 262.2 286C262.9 287.3 264.6 287.9 265.9 287.4C267.2 286.8 267.9 285 267.1 283.8C270 288.1 269.7 294.3 266.5 298.4C270.2 301.6 271.3 307.3 269.3 311.7C269.7 311.4 270.5 311.3 270.9 311.7C271.6 312.2 271.8 313.2 272.2 314C272.5 314.8 273.2 315.6 274.1 315.6C275.3 312.7 274.9 309.3 274.1 306.2C273.3 303 272.1 300 271.9 296.8Z" fill="white"/>
<path opacity="0.5" d="M297.8 250.4C296.4 249.3 294.8 248.6 293.1 248.4L297.8 250.4Z" fill="white"/>
<path opacity="0.5" d="M309.5 281.7C309.1 280 308.3 278.4 307.9 276.7C306.8 272.8 307.5 268.6 307 264.6C306.4 259.4 303.6 254.5 299.6 251.1L297.8 250.3C299.5 251.6 300.8 253.5 301.4 255.5C302.8 260.3 303.2 265.3 303.8 270.2C304.7 277.8 306.1 285.4 308 292.8C309.1 289.3 310.4 285.5 309.5 281.7Z" fill="white"/>
<path opacity="0.5" d="M290.5 263.9C291.7 262.9 292.4 261.4 292.6 259.8C292.8 258.4 292.7 257 292.5 255.6C292.4 256.2 291.6 256.7 290.9 256.5C290 256.3 289.5 255.5 289 254.8C288.9 255.2 288.8 255.6 288.6 256.1C288.6 255.9 288.5 255.6 288.5 255.4L288 256C288.7 258 289.4 260.3 288.3 262.2C287.8 263.1 286.9 263.7 286 264.3C287.4 265.2 289.2 264.9 290.5 263.9Z" fill="white"/>
<path opacity="0.5" d="M292.4 255.1C292.4 255.3 292.4 255.4 292.5 255.6C292.5 255.4 292.5 255.3 292.4 255.1Z" fill="white"/>
<path opacity="0.5" d="M287.2 275.3C283.7 268.4 280.2 261.5 276.3 254.8C274 250.9 271.7 247 268.7 243.6C267.4 242.1 263.5 238.6 261.4 240.9C260 242.4 261.8 245.2 260.1 246.8C260.5 246.8 262.5 246.6 262.7 246.9C267.1 252.3 269.5 259.3 269.4 266.3C270.8 265.2 272.7 266.7 273.8 268.1C280.6 276.8 286.9 285.9 292.8 295.2C291.7 291.1 291.6 286.7 290.4 282.6C289.6 280.2 288.4 277.7 287.2 275.3Z" fill="white"/>
<path opacity="0.5" d="M327.9 292.1C329.6 287.6 330.9 283 331 278.3C331.1 274 330.1 269.5 327.9 265.8C327.3 264.9 324.9 261 323.6 261.3C321.3 261.9 324.3 265.9 324.9 267C326.9 270.8 329 274.9 328.9 279.3C328.8 282.7 327.4 285.8 326.3 289C325.5 291.2 324.9 293.6 324.9 295.9C324.7 296.2 324.6 296.4 324.4 296.7C322.8 298.7 320.7 300.4 318.1 300.8C319.1 297.8 320 294.8 321 291.8C321.3 290.7 321.5 289.3 320.9 288.5C321.1 288.1 321.2 287.7 321.2 287.2C321.2 286.4 320.7 285.6 320.4 284.9C319.1 282 319.5 278.7 319.8 275.5C320.2 271.6 320.4 267.6 319.2 263.8C318.1 260.1 315.4 256.6 311.7 255.3C312 255.6 312.3 256 312.7 256.3L311.4 255.4C312.2 257 313 258.7 313.7 260.3C313.4 260.7 313.1 261.1 312.8 261.5C314.1 260.8 315.7 261.8 316.3 263.1C316.9 264.4 316.7 266 316.6 267.4C315.8 275.5 316.2 283.7 317.8 291.7C317.7 293.6 317.3 295.4 316.4 297C315.4 298.7 313.4 300 311.4 299.7C311.8 297.8 311.1 295.5 309.5 294.4C307.5 297.2 308.7 301.5 309 304.7C309.5 309.5 310.2 314.3 311.3 319.1C311.6 315 312.5 310.9 313.9 307.1C315 311 316.1 315 317.2 318.9C317.2 317.8 317.3 316.6 317.8 315.7C318.3 314.7 319.5 314 320.6 314.4C321.4 314.7 321.9 315.6 322.3 316.5C325.1 323.3 325.8 330.9 324.3 338.1C325.6 338.8 327.4 337.9 328.2 336.6C328.9 335.3 328.9 333.6 328.9 332.1C328.4 318.8 328.2 305.5 327.9 292.1Z" fill="white"/>
<path opacity="0.5" d="M294 296.4C293.4 297.5 296 302 296.4 303C298.6 308.4 300.8 313.8 303 319.1C302.3 312 300.5 305 297.9 298.4C297.5 297.4 295.3 294.1 294 296.4Z" fill="white"/>
<path opacity="0.5" d="M297.4 267.8C297 268.4 296.5 269.1 295.8 268.9C295.2 268.7 295.1 267.9 295.1 267.3C295.2 263.6 295.2 259.8 295.3 256.1C292.3 258.3 292.7 261.1 292.5 264.3C292.4 266.2 292.9 275.1 291.6 276.2C294.6 273.7 297.1 270.6 299 267.1C298.6 266.7 297.8 267.3 297.4 267.8Z" fill="white"/>
</g>
<path d="M260.7 293.1C259.5 294 258.5 295.1 257.8 296.4L260.7 293.1Z" fill="white"/>
<path d="M302.3 384.1L291.9 351.2C282.1 341.1 264.1 331.9 262.5 317.9C260.5 300 257.7 300.7 257.7 296.2C257.7 296 259 294 260.5 289.4C261 287.9 261.2 285.8 261.5 284C261.8 282.1 263.4 280.7 265.3 280.9C266.6 281 267.8 281.5 268.8 282.3C270.6 283.8 271.5 286.2 271.8 288.6C272 291 271.7 293.4 271.3 295.7C273.2 299.3 274.3 303.8 275.1 307.9C275.9 304.5 276.5 301.2 277.4 297.8C277.6 297.7 277.5 297.4 277.7 297.3C276 294.2 277.3 294.3 273.8 287.3C268 275.7 261.6 264.5 256.6 249.7C256.2 248.6 256.1 246.6 256.4 245.5C257.6 241.1 262.1 241.8 264.2 244.2C264.8 244.8 265.2 245.5 265.5 246.3C267.9 251.5 272.8 259.5 276.3 264.1L288.3 279.9C288.3 279.9 291.9 276.6 292.4 275.1C292.9 273.7 292.4 262.4 292.4 262.4C292.4 262.4 291.7 264.6 289.8 264.6C288.4 264.6 285.7 265.6 283.5 263.5C281.8 261.8 281.6 259 282.9 257L287.4 250C287.4 250 290.5 246.9 295.1 248.6C299.6 250.3 304.2 254.1 304.2 254.1C304.2 254.1 308.3 253.6 311.9 255.1C315.5 256.5 319.5 261.1 319.5 261.1C319.5 261.1 323.6 261.1 325.5 262.3C326 262.6 332.8 271.8 331.1 279.5C330.1 284.1 329.7 290.6 329.2 292.4L329.1 336.6L337.4 365.9" stroke="#263238" stroke-miterlimit="10"/>
<path d="M305.1 255.6C306.9 262.1 307.8 268.9 307.8 275.6C307.8 276.7 307.8 277.9 308.2 279C308.6 280.1 309.4 281.1 310.5 281.3" stroke="#263238" stroke-miterlimit="10"/>
<path d="M319.2 262.2C322.2 268.5 319.1 282.4 319.4 283.4C319.6 284.4 320.2 285.3 321.1 285.8" stroke="#263238" stroke-miterlimit="10"/>
<path d="M293.5 254.7C293.2 256.7 292.9 259 292.5 261C290.2 259 288.7 256.1 288.5 253" stroke="#263238" stroke-miterlimit="10"/>
<path d="M274.3 308.1C273.6 308.4 272.9 308.7 272.1 309.1" stroke="#263238" stroke-miterlimit="10"/>
<path d="M274.9 309.8C274.5 311.5 274.5 313.2 274.9 314.9" stroke="#263238" stroke-miterlimit="10"/>
<path d="M287.5 291.1C288.3 292.5 289.1 294 289.9 295.4" stroke="#263238" stroke-miterlimit="10"/>
<path d="M292.1 275.4C292.9 274.3 293.7 273.2 294.5 272" stroke="#263238" stroke-miterlimit="10"/>
<path d="M325.6 291.1C325.4 292 325.1 292.9 324.9 293.7" stroke="#263238" stroke-miterlimit="10"/>
<path d="M319.8 283.9C320.5 281.7 321.2 279.4 321.9 277.2" stroke="#263238" stroke-miterlimit="10"/>
<path d="M326.8 272C328 271.3 329.8 271.8 330.4 273.1" stroke="#263238" stroke-miterlimit="10"/>
<path d="M312.4 260.5C314.1 260 315.9 260.5 317.2 261.6" stroke="#263238" stroke-miterlimit="10"/>
<path d="M267.9 267.2C269.4 265.5 271.8 264.6 274.1 264.9" stroke="#263238" stroke-miterlimit="10"/>
<path d="M258.9 248.3C260.3 247.3 262.2 246.8 263.9 247.1" stroke="#263238" stroke-miterlimit="10"/>
<path d="M260.7 293.1C259.5 294 258.5 295.1 257.8 296.4" stroke="#263238" stroke-miterlimit="10"/>
<path d="M261.7 288.5C263.3 287.4 265.8 289.9 267.3 288.6C267.9 288.1 267.9 287.2 267.8 286.4C267.7 285.6 267.4 284.9 267.5 284.1" stroke="#263238" stroke-miterlimit="10"/>
<path d="M306.3 281.6C308.2 285.5 308.6 290.2 307.4 294.4" stroke="#263238" stroke-miterlimit="10"/>
<path d="M317.9 287.8C318.2 289.7 317.9 291.7 316.9 293.3" stroke="#263238" stroke-miterlimit="10"/>
<path opacity="0.2" d="M221.2 302.8C221.3 303.5 221.3 304.2 221.1 304.9C220.4 307.9 218.6 316.7 217.9 321.5C217.1 327.4 207.6 345.5 207.6 345.5C207.6 345.5 198.9 356.3 194.4 362C192.2 364.8 188.8 376 185.8 386.7C182.1 385.6 178.4 384.4 174.8 383.1C171.8 382 168.8 380.9 165.8 379.7C161.6 378.1 156.3 375.4 150.2 372.1C151.9 366.1 153 361.4 153 361.2C152.9 360.6 156.6 353.6 156.6 353.6L153.5 312.2L151.6 305.9C150.6 302.6 150 299.3 149.8 295.9C149.4 290.8 149.8 285.6 151.1 280.6L156.5 272.5L159 272.3L166.9 261.3C166.9 261.3 171.1 260 172.2 263.2C173.3 266.4 168.7 272.4 168.7 272.4L167.1 282.3L170.9 291.5L172.9 292.2C172.9 292.2 173.6 275.9 173.1 272.7L177.3 257.9C177.3 257.9 179.8 252.9 180.6 250.4C181.4 247.9 185.8 245.4 188.4 249.8C188.4 249.8 189.8 252 188.8 255.1C187.7 258.2 186.9 260.5 186.9 260.5C186.9 260.5 186 273.1 185.7 273.4C185.4 273.7 187.6 292.1 187.6 292.1L189.2 292.8L189.8 275.2L193.2 258.7C193.2 258.7 192.9 250.8 198.5 251.7C198.5 251.7 201.1 251.4 202.6 254.3C204.1 257.2 202.7 276.1 202.7 276.1L204.1 295.7L206.3 310.8L208.9 300.4C208.9 300.4 209 285.5 218.4 284.3C218.4 284.3 221.2 283.8 221.8 285.7C222.4 287.6 220.4 291.6 220.7 295.4C220.6 298.2 221 301.2 221.2 302.8Z" fill="black"/>
<path d="M218.3 284.4C217.9 282.4 215.1 282.7 215.1 282.7C205.7 283.3 204.4 298.1 204.4 298.1L201 308.2L199.9 292.9L200 273.2C200 273.2 202.9 254.4 201.6 251.4C200.3 248.4 197.7 248.5 197.7 248.5C192.2 247.1 191.9 255 191.9 255L187.3 271.2L185.4 288.7L183.8 287.9C183.8 287.9 183.1 269.4 183.4 269.1C183.7 268.8 185.6 256.3 185.6 256.3C185.6 256.3 186.6 254 187.9 251C189.2 248 187.9 245.7 187.9 245.7C185.7 241.2 181 243.3 180.1 245.7C179.1 248.1 176.3 252.9 176.3 252.9L171 267.4C171.2 270.7 169.3 286.9 169.3 286.9L167.4 286L164.3 276.5L166.6 266.8C166.6 266.8 171.7 261.2 170.8 257.9C170 254.6 165.6 255.6 165.6 255.6L157 266H154.5L148.5 273.6C146.9 278.5 146 283.6 146 288.8C146 292.2 146.4 295.6 147.1 298.9L148.5 305.3V346.9C148.5 346.9 144.4 353.6 144.4 354.2C144.4 354.5 142.7 359.7 140.3 366.3C150.7 372.4 159.6 377.1 165.9 379.6C168.9 380.8 171.9 381.9 174.9 383C178.7 372.3 183.1 360.9 185.6 358.2C190.5 352.9 200 342.8 200 342.8C200 342.8 210.8 325.4 212.1 319.7C213.1 315 215.7 306.4 216.6 303.4C216.8 302.7 216.9 302 216.8 301.3C216.7 299.7 216.6 296.7 216.6 294C216.5 290.2 218.8 286.4 218.3 284.4Z" fill="white"/>
<path d="M153.4 280.2C155 278.2 158.3 277.4 160.2 279.2C161.3 280.2 161.6 281.8 161.9 283.2C162.2 284.7 162.4 286.2 163.4 287.3C164.4 288.4 166.3 288.9 167.3 287.8C167.4 290 167.6 292.2 167.7 294.4C170 290.3 171.2 285.6 171.1 281C171.1 278.7 170.7 276.4 171.2 274.2C171.7 272 173.4 269.8 175.7 269.7C178.2 269.6 180.2 272 180.7 274.5C181.2 277 180.6 279.5 180.5 282C180.3 285.8 181 289.7 182.7 293.2C183.2 292.1 183.8 291.1 184.3 290C184.8 292.2 185.3 294.3 185.7 296.5C186.1 291.8 186.5 287 186.9 282.3C187 281 187.1 279.6 187.8 278.4C188.4 277.2 189.7 276.2 191 276.4C192.8 276.6 193.8 278.5 194.4 280.2C198.9 292.9 197 306.9 195.1 320.3C196.4 320.5 197.4 319.3 197.7 318C198 316.8 197.9 315.4 198.4 314.3C198.9 313.1 200.3 312.1 201.4 312.8C203 313.8 201.9 316.9 203.5 317.7C204 313.7 205.6 309.9 208 306.8C209.1 305.4 210.8 303.9 212.5 304.4C213.8 304.7 214.7 306.1 214.9 307.4C215.1 308.7 217 303.2 216.7 304.5C217.5 296.8 215.9 296 216.7 288.3C216.8 286.9 219.1 284.5 218.1 283.5C217.2 282.5 214.5 281.1 213.3 281.7C212.1 282.3 208.2 284.2 207.4 285.3C202.5 292.1 202.8 301.9 201.3 310.1C200 297.5 198.7 284.8 201 272.4C202.3 265.6 204.6 258.4 202.4 251.8C201.4 248.8 198.7 245.8 195.6 246.3C193.1 246.8 191.6 249.3 190.5 251.7C187.1 259.6 185.5 268.2 184 276.7C185.9 268.2 187.8 259.6 189.6 251.1C190.1 248.9 190.6 246.6 190.2 244.4C189.8 242.2 188.3 240 186 239.5C183.8 239 181.6 240.3 179.9 241.9C174 247.3 171.7 255.6 169.8 263.5C170.5 261.5 171.2 259.3 171 257.2C170.8 255.1 169.4 252.9 167.3 252.4C164.6 251.8 162.1 254.2 160.9 256.8C159.7 259.3 159.1 262.2 157.2 264.2C155.8 262.6 153.2 262.7 151.5 263.9C149.8 265.1 148.7 267 147.9 268.9C144.8 275.9 143.4 283.7 144 291.4C145.4 288.3 148.9 286.3 152.2 286.7C152 285 151.8 283.3 151.6 281.6" fill="#03372B"/>
<path d="M160 296.5C159.9 297.8 159.8 299 159.7 300.3C160.1 299.2 161.6 298.9 162.5 299.6C162.3 298.8 162.8 298 163.1 297.3C163.4 296.5 163.5 295.5 162.7 295.1C161.8 294.7 161 295.7 160.5 296.5C160.5 296.2 160.4 295.9 160.4 295.6L160 296.5Z" fill="#03372B"/>
<path d="M174.4 294.2C173.4 295.4 172.7 296.8 172.4 298.4C172.8 298 173.3 297.5 173.9 297.3C174.5 297.1 175.2 297.2 175.6 297.7C175.8 298 175.9 298.4 176.2 298.6C176.5 298.8 177 298.6 177.2 298.2C177.4 297.9 177.4 297.5 177.5 297.1C177.5 296.4 177.6 295.6 177.4 294.9C177.2 294.2 176.7 293.5 176 293.4C175.3 293.2 174.4 293.8 174.4 294.5V294.2Z" fill="#03372B"/>
<path d="M188.3 297.7C187.2 299.2 186.5 300.9 186.2 302.7C186.9 302.6 187.6 302.1 188.1 301.7C188.7 301.2 189.3 300.8 190.1 300.7C190.8 300.6 191.7 301.2 191.7 301.9C191.6 301.1 191.7 300.2 191.8 299.4C191.9 298.6 191.9 297.7 191.6 296.9C191.3 296.1 190.5 295.4 189.7 295.5C188.9 295.5 188.1 296.5 188.5 297.3L188.3 297.7Z" fill="#03372B"/>
<path d="M150 302.7C149.2 304.1 148.8 305.8 148.8 307.4C148.8 306.6 149.5 306 150.3 305.9C151 305.8 151.8 306.1 152.4 306.5C152.5 305.7 152.7 305 152.5 304.2C152.3 303.4 151.8 302.7 151 302.6C150.2 302.5 149.4 303.2 149.6 304C149.5 303.8 149.4 303.6 149.4 303.4L150 302.7Z" fill="#03372B"/>
<path opacity="0.5" d="M153.4 280.2C155 278.2 158.3 277.4 160.2 279.2C161.3 280.2 161.6 281.8 161.9 283.2C162.2 284.7 162.4 286.2 163.4 287.3C164.4 288.4 166.3 288.9 167.3 287.8C167.4 290 167.6 292.2 167.7 294.4C170 290.3 171.2 285.6 171.1 281C171.1 278.7 170.7 276.4 171.2 274.2C171.7 272 173.4 269.8 175.7 269.7C178.2 269.6 180.2 272 180.7 274.5C181.2 277 180.6 279.5 180.5 282C180.3 285.8 181 289.7 182.7 293.2C183.2 292.1 183.8 291.1 184.3 290C184.8 292.2 185.3 294.3 185.7 296.5C186.1 291.8 186.5 287 186.9 282.3C187 281 187.1 279.6 187.8 278.4C188.4 277.2 189.7 276.2 191 276.4C192.8 276.6 193.8 278.5 194.4 280.2C198.9 292.9 197 306.9 195.1 320.3C196.4 320.5 197.4 319.3 197.7 318C198 316.8 197.9 315.4 198.4 314.3C198.9 313.1 200.3 312.1 201.4 312.8C203 313.8 201.9 316.9 203.5 317.7C204 313.7 205.6 309.9 208 306.8C209.1 305.4 210.8 303.9 212.5 304.4C213.8 304.7 214.7 306.1 214.9 307.4C215.1 308.7 217 303.2 216.7 304.5C217.5 296.8 215.9 296 216.7 288.3C216.8 286.9 219.1 284.5 218.1 283.5C217.2 282.5 214.5 281.1 213.3 281.7C212.1 282.3 208.2 284.2 207.4 285.3C202.5 292.1 202.8 301.9 201.3 310.1C200 297.5 198.7 284.8 201 272.4C202.3 265.6 204.6 258.4 202.4 251.8C201.4 248.8 198.7 245.8 195.6 246.3C193.1 246.8 191.6 249.3 190.5 251.7C187.1 259.6 185.5 268.2 184 276.7C185.9 268.2 187.8 259.6 189.6 251.1C190.1 248.9 190.6 246.6 190.2 244.4C189.8 242.2 188.3 240 186 239.5C183.8 239 181.6 240.3 179.9 241.9C174 247.3 171.7 255.6 169.8 263.5C170.5 261.5 171.2 259.3 171 257.2C170.8 255.1 169.4 252.9 167.3 252.4C164.6 251.8 162.1 254.2 160.9 256.8C159.7 259.3 159.1 262.2 157.2 264.2C155.8 262.6 153.2 262.7 151.5 263.9C149.8 265.1 148.7 267 147.9 268.9C144.8 275.9 143.4 283.7 144 291.4C145.4 288.3 148.9 286.3 152.2 286.7C152 285 151.8 283.3 151.6 281.6" fill="white"/>
<g opacity="0.5">
<g opacity="0.5">
<path opacity="0.5" d="M160 296.5C159.9 297.8 159.8 299 159.7 300.3C160.1 299.2 161.6 298.9 162.5 299.6C162.3 298.8 162.8 298 163.1 297.3C163.4 296.5 163.5 295.5 162.7 295.1C161.8 294.7 161 295.7 160.5 296.5C160.5 296.2 160.4 295.9 160.4 295.6L160 296.5Z" fill="white"/>
</g>
<g opacity="0.5">
<path opacity="0.5" d="M174.4 294.2C173.4 295.4 172.7 296.8 172.4 298.4C172.8 298 173.3 297.5 173.9 297.3C174.5 297.1 175.2 297.2 175.6 297.7C175.8 298 175.9 298.4 176.2 298.6C176.5 298.8 177 298.6 177.2 298.2C177.4 297.9 177.4 297.5 177.5 297.1C177.5 296.4 177.6 295.6 177.4 294.9C177.2 294.2 176.7 293.5 176 293.4C175.3 293.2 174.4 293.8 174.4 294.5V294.2Z" fill="white"/>
</g>
<g opacity="0.5">
<path opacity="0.5" d="M188.3 297.7C187.2 299.2 186.5 300.9 186.2 302.7C186.9 302.6 187.6 302.1 188.1 301.7C188.7 301.2 189.3 300.8 190.1 300.7C190.8 300.6 191.7 301.2 191.7 301.9C191.6 301.1 191.7 300.2 191.8 299.4C191.9 298.6 191.9 297.7 191.6 296.9C191.3 296.1 190.5 295.4 189.7 295.5C188.9 295.5 188.1 296.5 188.5 297.3L188.3 297.7Z" fill="white"/>
</g>
<g opacity="0.5">
<path opacity="0.5" d="M150 302.7C149.2 304.1 148.8 305.8 148.8 307.4C148.8 306.6 149.5 306 150.3 305.9C151 305.8 151.8 306.1 152.4 306.5C152.5 305.7 152.7 305 152.5 304.2C152.3 303.4 151.8 302.7 151 302.6C150.2 302.5 149.4 303.2 149.6 304C149.5 303.8 149.4 303.6 149.4 303.4L150 302.7Z" fill="white"/>
</g>
</g>
<path d="M140.2 366.3C142.6 359.8 144.3 354.5 144.3 354.2C144.3 353.6 148.4 346.9 148.4 346.9V305.3L147 298.9C146.3 295.6 145.9 292.2 145.9 288.8C145.9 283.7 146.7 278.5 148.4 273.6L154.4 266H156.9L165.6 255.6C165.6 255.6 169.9 254.6 170.8 257.9C171.6 261.2 166.6 266.8 166.6 266.8L164.3 276.5L167.4 286L169.3 286.9C169.3 286.9 171.2 270.7 171 267.4L176.3 252.9C176.3 252.9 179.2 248.1 180.1 245.7C181.1 243.3 185.7 241.2 187.9 245.7C187.9 245.7 189.2 248 187.9 251C186.6 254 185.6 256.3 185.6 256.3C185.6 256.3 183.7 268.8 183.4 269.1C183.1 269.4 183.8 287.9 183.8 287.9L185.4 288.7L187.3 271.2L191.9 255C191.9 255 192.2 247.1 197.7 248.5C197.7 248.5 200.3 248.4 201.6 251.4C202.9 254.4 200 273.2 200 273.2L199.9 292.9L201 308.2L204.4 298.1C204.4 298.1 205.7 283.3 215.1 282.7C215.1 282.7 217.9 282.4 218.3 284.4C218.7 286.4 216.5 290.2 216.5 294C216.5 296.7 216.6 299.7 216.7 301.3C216.7 302 216.7 302.7 216.5 303.4C215.6 306.4 213.1 315 212 319.7C210.7 325.5 199.9 342.8 199.9 342.8C199.9 342.8 190.4 353 185.5 358.2C183 360.9 178.6 372.3 174.8 383" stroke="#263238" stroke-miterlimit="10"/>
<path d="M169.1 288.5C169.7 290.5 169.1 292.7 167.7 294.2Z" fill="white"/>
<path d="M169.1 288.5C169.7 290.5 169.1 292.7 167.7 294.2" stroke="#263238" stroke-miterlimit="10"/>
<path d="M153 302.5C154.4 300.4 155.7 297.5 155.3 294.9C154.6 290 152.3 284.3 153.3 279.5C153.9 276.4 154.6 273.3 155.2 270.2" fill="white"/>
<path d="M153 302.5C154.4 300.4 155.7 297.5 155.3 294.9C154.6 290 152.3 284.3 153.3 279.5C153.9 276.4 154.6 273.3 155.2 270.2" stroke="#263238" stroke-miterlimit="10"/>
<path d="M192.8 256.1C194.4 255.7 196.2 255.7 197.8 256.1C197.8 255.6 197.8 255.2 197.9 254.7" stroke="#263238" stroke-miterlimit="10"/>
<path d="M179.7 249.9C180.7 250.6 182 250.7 183.1 250.1C184.1 249.5 184.8 248.4 184.8 247.2" stroke="#263238" stroke-miterlimit="10"/>
<path d="M215.9 284.6C213.1 285.2 211 288.1 211.3 290.9C212.1 291.1 212.9 291.4 213.8 291.6" stroke="#263238" stroke-miterlimit="10"/>
<path d="M183.7 285.8C183.8 287.5 183.6 291.5 183.7 293.2Z" fill="white"/>
<path d="M183.7 285.8C183.8 287.5 183.6 291.5 183.7 293.2" stroke="#263238" stroke-miterlimit="10"/>
<path d="M185.5 288.1C185.3 290.8 185.1 293.6 184.9 296.3C184.9 296 184.9 295.6 184.9 295.3" fill="white"/>
<path d="M185.5 288.1C185.3 290.8 185.1 293.6 184.9 296.3C184.9 296 184.9 295.6 184.9 295.3" stroke="#263238" stroke-miterlimit="10"/>
<path d="M200.8 311.3C201.5 314.3 201.2 317.6 199.9 320.4Z" fill="white"/>
<path d="M200.8 311.3C201.5 314.3 201.2 317.6 199.9 320.4" stroke="#263238" stroke-miterlimit="10"/>
<path d="M175.4 296.9C173.2 299.3 173.5 305 175.1 308.2" stroke="#263238" stroke-miterlimit="10"/>
<path d="M191.5 300.8C191.6 303.4 190.6 306 188.8 308.1" stroke="#263238" stroke-miterlimit="10"/>
<path d="M159.5 298C159.1 300.4 159.7 302.9 161 305" stroke="#263238" stroke-miterlimit="10"/>
<path d="M150.3 305.5C150.2 307.4 150.7 309.3 151.8 310.8" stroke="#263238" stroke-miterlimit="10"/>
<path d="M163 259.4C164.1 258.9 165.6 259.1 166.5 260C166.9 259.5 167.3 258.9 167.7 258.4" stroke="#263238" stroke-miterlimit="10"/>
<path d="M173.2 266.7C174.9 265.6 177.3 266.1 178.5 267.6" stroke="#263238" stroke-miterlimit="10"/>
<path d="M189.3 271.7C191.1 270.9 193.2 270.9 195 271.8" stroke="#263238" stroke-miterlimit="10"/>
<path d="M153.6 280.1C154.6 278.3 156.8 277.2 158.8 277.5" stroke="#263238" stroke-miterlimit="10"/>
<path d="M146.9 289.7C146.9 288.4 148 287.2 149.3 287" stroke="#263238" stroke-miterlimit="10"/>
<path d="M404.6 217.8C427.465 217.8 446 199.265 446 176.4C446 153.535 427.465 135 404.6 135C381.736 135 363.2 153.535 363.2 176.4C363.2 199.265 381.736 217.8 404.6 217.8Z" stroke="#263238" stroke-miterlimit="10" stroke-linecap="round" stroke-linejoin="round"/>
<path opacity="0.2" d="M451.5 177.5C442.7 192 439.5 190 409.4 204.5C394.1 211.8 379.3 188.3 389.3 164.1C389.8 162.9 394.1 157 394.1 157C395.9 149 402.6 142.3 410.6 140.4C418.6 138.5 427.5 141.5 432.7 147.9C438.4 142.9 446.6 141 453.9 142.8C454.3 143.8 454.6 144.8 454.9 145.8C455 146.2 455.1 146.6 455.3 146.9C455.7 148.1 456 149.2 456.4 150.4C457.1 152.6 457.7 154.9 458.2 157.2C454.9 156.3 451.5 156.3 448.4 157.8C446.2 158.9 444.3 160.7 442 161.5C439.7 162.4 436.5 161.9 435.6 159.6C436.7 164.2 441.6 162.8 446.2 163.8C453.4 165.1 455.2 171.4 451.5 177.5Z" fill="black"/>
<path d="M437.9 170.3C437.9 170.3 445.3 169.3 448.8 169.8C451 170.1 452.4 171.4 453.1 172.2C453.4 172.6 453.6 173 453.6 173.5L454 179.3C454 180 453.8 180.6 453.4 181.1C452 182.6 447.6 185.4 434.6 186.3C416.4 187.9 437.9 170.3 437.9 170.3Z" fill="white" stroke="#263238" stroke-miterlimit="10" stroke-linecap="round" stroke-linejoin="round"/>
<path d="M432.5 155.3C434.6 157.9 438.6 163.8 438.6 172.9C438.6 179.8 430.6 203.4 410.1 206.3C388.4 209.3 371 190.8 374.7 168.4C377.2 153 415.1 133.7 432.5 155.3Z" fill="white" stroke="#263238" stroke-miterlimit="10" stroke-linecap="round" stroke-linejoin="round"/>
<path d="M406 201.2C423.397 201.2 437.5 187.858 437.5 171.4C437.5 154.942 423.397 141.6 406 141.6C388.603 141.6 374.5 154.942 374.5 171.4C374.5 187.858 388.603 201.2 406 201.2Z" fill="white"/>
<path d="M405.9 197.5C420.149 197.5 431.7 186.531 431.7 173C431.7 159.469 420.149 148.5 405.9 148.5C391.651 148.5 380.1 159.469 380.1 173C380.1 186.531 391.651 197.5 405.9 197.5Z" fill="#263238"/>
<path d="M437.4 171.4C437.4 154.9 423.3 141.6 405.9 141.6C388.5 141.6 374.4 154.9 374.4 171.4" stroke="#263238" stroke-miterlimit="10" stroke-linecap="round" stroke-linejoin="round"/>
<path d="M429.1 191.6C434.3 186.3 437.4 179.2 437.4 171.4" stroke="#263238" stroke-miterlimit="10" stroke-linecap="round" stroke-linejoin="round"/>
<path d="M383.9 192.7C389.6 198 397.4 201.2 405.9 201.2C411.2 201.2 416.1 200 420.5 197.8" stroke="#263238" stroke-miterlimit="10" stroke-linecap="round" stroke-linejoin="round"/>
<path d="M379.4 187.4C379.8 188 380.2 188.6 380.7 189.2" stroke="#263238" stroke-miterlimit="10" stroke-linecap="round" stroke-linejoin="round"/>
<path d="M374.5 171.4C374.5 175.9 375.6 180.3 377.5 184.1" stroke="#263238" stroke-miterlimit="10" stroke-linecap="round" stroke-linejoin="round"/>
<path d="M452.1 179.6C452.1 179.6 446.5 175.7 437.4 179.2Z" fill="white"/>
<path d="M452.1 179.6C452.1 179.6 446.5 175.7 437.4 179.2" stroke="#263238" stroke-miterlimit="10" stroke-linecap="round" stroke-linejoin="round"/>
<path d="M447.3 182.3C445.2 182.9 441.6 183.7 435.7 184.1Z" fill="white"/>
<path d="M447.3 182.3C445.2 182.9 441.6 183.7 435.7 184.1" stroke="#263238" stroke-miterlimit="10" stroke-linecap="round" stroke-linejoin="round"/>
<path d="M450.2 181C450.2 181 449.9 181.3 448.8 181.7Z" fill="white"/>
<path d="M450.2 181C450.2 181 449.9 181.3 448.8 181.7" stroke="#263238" stroke-miterlimit="10" stroke-linecap="round" stroke-linejoin="round"/>
<path d="M455.2 146.8C455.1 146.4 455 146 454.8 145.7C452.9 139.8 450.4 133.3 447.4 126.4C446.8 125.1 446.3 123.8 445.7 122.5C445.5 122.5 445.3 122.5 445 122.6C442.1 122.9 439.1 123.3 436.8 124.9C434.4 126.6 433 130 434.6 132.4C436.1 134.8 440 136.2 439.4 139C433 142.6 425.2 142.2 418 144C413.7 145.1 409.6 147 406.1 149.6C405 150.5 403.9 151.4 402.9 152.3C402.5 152.7 402 153.2 401.6 153.7C401 154.5 400.6 155.3 400.5 156.2C400.3 158.9 402.7 160.7 405.3 161.9C405.8 162.1 405.7 162.8 405.3 163C403.6 163.7 402 164.5 400.6 165.7C399.8 166.4 400.5 167.8 401.6 167.7C401.7 167.7 401.9 167.7 402 167.7C403.1 167.6 404.1 167.8 405 168.1C406.5 168.6 407.6 169.7 407.7 171C407.9 173 405.6 174.9 402.6 175.1C401.9 175.2 402.4 176 403.5 176.2C405.6 176.6 407.8 176.2 409.9 175.7C412.4 175.1 415.1 174.2 416.5 172.1C417.1 171.2 417.3 170 417.1 168.9C416.9 167.4 415.9 166.1 414.4 166C419 165.4 423.6 164.5 428.1 163.2L429.5 162.8C430.8 162.4 432.3 161.9 433.4 161.1C434.1 160.6 434.7 160 435.1 159.2C436.1 157.2 434.7 154 432.5 154.4C439 151.9 445.8 150.4 452.3 148.1C453.2 147.7 454.2 147.3 455.2 146.8Z" fill="white"/>
<path opacity="0.2" d="M405.8 60.3C399.8 65.7 392.9 70.2 385.9 74.3C349.5 95.8 308.4 108.7 266.5 115C224.7 121.3 182.1 121.1 139.9 117.6C131.6 116.9 123.2 116.1 115.6 112.7C109.1 109.9 103.3 104.9 100.6 98.5C109.7 88.1 118.2 77.6 127.7 67.7C130 65.3 132.2 63 134.6 60.7C136.6 58.8 138.6 56.9 140.7 55.1C143.1 53 145.6 50.9 148.2 48.9C151.8 46.1 155.5 43.5 159.5 41C160.5 40.4 161.4 39.8 162.4 39.2C262.1 -22.8 335.5 -2.50002 384.5 39.2C388.2 42.3 391.7 45.6 395.2 49C397.3 51 399.3 53.1 401.2 55.2C401.4 55.4 401.6 55.7 401.8 55.9C403.1 57.4 404.5 58.8 405.8 60.3Z" fill="black"/>
<path d="M409.7 50.4L74.2002 51.9L79.3002 44.3C81.7002 40.6 85.8002 38.4 90.2002 38.4H393.8C397.8 38.4 401.5 40.2 404 43.3L409.7 50.4Z" fill="white" stroke="#263238" stroke-miterlimit="10" stroke-linecap="round" stroke-linejoin="round"/>
<path d="M247.8 187.4H229.4C210.5 187.4 195.2 172.1 195.2 153.2V134.8C195.2 115.9 210.5 100.6 229.4 100.6H247.8C266.7 100.6 282 115.9 282 134.8V153.2C282 172.1 266.7 187.4 247.8 187.4Z" fill="#757575" stroke="#263238" stroke-miterlimit="10" stroke-linecap="round" stroke-linejoin="round"/>
<path d="M211.1 151.3V163.6C211.1 167.5 214.2 170.6 218.1 170.6H260.4C264.2 170.6 267.4 167.5 267.4 163.6C267.5 158.1 267.7 151.2 267.7 151.2H211.1V151.3Z" fill="#999999" stroke="#263238" stroke-miterlimit="10" stroke-linecap="round" stroke-linejoin="round"/>
<path d="M365.8 155.4H118.6C116 155.4 113.6 153.8 112.7 151.4L74.5 53.5999C73.5 50.9999 75.4 48.2999 78.1 48.2999H406.1C408.8 48.2999 410.7 51.0999 409.7 53.5999L371.6 151.5C370.7 153.8 368.4 155.4 365.8 155.4Z" fill="#BFBFBF" stroke="#263238" stroke-miterlimit="10" stroke-linecap="round" stroke-linejoin="round"/>
<path d="M367.6 146.9H116.1L81.5 54.3999H402L367.6 146.9Z" fill="#263238"/>
<path d="M267.4 155.3H211.3V159.1H267.4V155.3Z" fill="#263238"/>
<path d="M330.9 142.9H153.3C152.3 142.9 151.4 142.5 151.2 141.9L125.9 61.7C125.6 60.8 126.4 60.1 127.7 60.1H356.4C357.7 60.1 358.4 60.8 358.2 61.7L332.9 142C332.8 142.5 331.8 142.9 330.9 142.9Z" fill="#03372B"/>
<path d="M330.2 141.1H153.9L132.5 70.6H351.7L330.2 141.1Z" fill="#263238"/>
<path d="M179.2 88.1H145.8C145 88.1 144.4 88.5 144.6 89.1C144.8 89.6 145.5 90.1 146.4 90.1H179.6C180.4 90.1 181 89.7 180.9 89.1C180.8 88.6 180.1 88.1 179.2 88.1Z" fill="white"/>
<path d="M180.4 94.2H152C151.2 94.2 150.7 94.6 150.8 95.2C150.9 95.7 151.7 96.2 152.5 96.2H180.7C181.5 96.2 182.1 95.8 182 95.2C181.9 94.6 181.2 94.2 180.4 94.2Z" fill="white"/>
<path opacity="0.5" d="M181.4 100.1H149.2C148.4 100.1 147.9 100.5 148 101C148.1 101.5 148.9 101.9 149.7 101.9H181.7C182.5 101.9 183.1 101.5 183 101C182.9 100.5 182.2 100.1 181.4 100.1Z" fill="white"/>
<path d="M182.5 105.8H163.6C162.8 105.8 162.3 106.2 162.4 106.7C162.5 107.2 163.2 107.6 164 107.6H182.8C183.6 107.6 184.1 107.2 184 106.7C184 106.2 183.3 105.8 182.5 105.8Z" fill="white"/>
<path d="M183.5 111.3H152.4C151.6 111.3 151.1 111.7 151.3 112.2C151.4 112.7 152.2 113.1 152.9 113.1H183.8C184.6 113.1 185.1 112.7 185 112.2C184.9 111.6 184.2 111.3 183.5 111.3Z" fill="white"/>
<path d="M184.5 116.6H159.4C158.6 116.6 158.1 117 158.3 117.4C158.4 117.9 159.1 118.2 159.9 118.2H184.9C185.7 118.2 186.2 117.8 186.1 117.4C185.9 116.9 185.2 116.6 184.5 116.6Z" fill="white"/>
<path d="M185.4 121.7H160.7C160 121.7 159.5 122.1 159.6 122.5C159.7 122.9 160.4 123.3 161.2 123.3H185.8C186.5 123.3 187.1 122.9 187 122.5C186.8 122.1 186.1 121.7 185.4 121.7Z" fill="white"/>
<path d="M186.3 126.7H159.3C158.6 126.7 158.1 127.1 158.2 127.5C158.3 127.9 159 128.3 159.7 128.3H186.5C187.2 128.3 187.8 128 187.7 127.5C187.7 127 187 126.7 186.3 126.7Z" fill="white"/>
<path opacity="0.5" d="M187.2 131.5H169.8C169.1 131.5 168.6 131.8 168.7 132.3C168.8 132.7 169.5 133.1 170.2 133.1H187.5C188.2 133.1 188.7 132.8 188.7 132.3C188.6 131.8 187.9 131.5 187.2 131.5Z" fill="white"/>
<path opacity="0.5" d="M178.1 81.8H153.2C152.4 81.8 151.8 82.3 151.9 82.8C152 83.4 152.8 83.8 153.7 83.8H178.4C179.2 83.8 179.8 83.3 179.7 82.8C179.7 82.3 178.9 81.8 178.1 81.8Z" fill="white"/>
<path d="M176.9 75.3H142.3C141.4 75.3 140.9 75.8 141.1 76.4C141.3 77 142.1 77.5 142.9 77.5H177.3C178.1 77.5 178.8 77 178.6 76.4C178.5 75.7 177.7 75.3 176.9 75.3Z" fill="white"/>
<path d="M188 136.1H159.3C158.6 136.1 158.1 136.4 158.2 136.8C158.3 137.2 159 137.5 159.7 137.5H188.3C189 137.5 189.5 137.2 189.4 136.8C189.4 136.5 188.7 136.1 188 136.1Z" fill="white"/>
<path opacity="0.5" d="M191 90.3H197.4L197.1 87.9H190.6L191 90.3Z" fill="white"/>
<path opacity="0.5" d="M191.9 96.4H198.2L197.9 94H191.5L191.9 96.4Z" fill="white"/>
<path opacity="0.5" d="M192.7 102.2H199L198.7 99.9H192.4L192.7 102.2Z" fill="white"/>
<path opacity="0.5" d="M193.6 107.8H199.7L199.4 105.5H193.2L193.6 107.8Z" fill="white"/>
<path opacity="0.5" d="M194.4 113.2H200.4L200.1 111H194.1L194.4 113.2Z" fill="white"/>
<path opacity="0.5" d="M195.2 118.4H201.1L200.8 116.4H194.9L195.2 118.4Z" fill="white"/>
<path opacity="0.5" d="M195.9 123.5H201.8L201.5 121.5H195.6L195.9 123.5Z" fill="white"/>
<path opacity="0.5" d="M196.7 128.4H202.4L202.2 126.5H196.4L196.7 128.4Z" fill="white"/>
<path opacity="0.5" d="M197.4 133.2H203L202.8 131.3H197.1L197.4 133.2Z" fill="white"/>
<path opacity="0.5" d="M190 84.1H196.6L196.3 81.5H189.6L190 84.1Z" fill="white"/>
<path opacity="0.5" d="M189 77.6H195.8L195.4 75H188.6L189 77.6Z" fill="white"/>
<path opacity="0.5" d="M198.1 137.8H203.7L203.4 135.9H197.8L198.1 137.8Z" fill="white"/>
<path d="M232.2 127.4C232.2 127 232.8 126.6 233.5 126.6H329.3C330 126.6 330.5 127 330.4 127.4C330.3 127.8 329.6 128.2 328.9 128.2H233.6C232.8 128.2 232.2 127.9 232.2 127.4Z" fill="white"/>
<path d="M330.3 123.3H277.2C276.5 123.3 275.9 122.9 275.9 122.5C275.9 122.1 276.6 121.7 277.3 121.7H330.6C331.3 121.7 331.8 122.1 331.7 122.5C331.7 122.9 331 123.3 330.3 123.3Z" fill="white"/>
<path opacity="0.5" d="M264.6 123.3H248.1C247.4 123.3 246.8 122.9 246.8 122.5C246.8 122.1 247.4 121.7 248.2 121.7H264.8C265.5 121.7 266.1 122.1 266.1 122.5C266 122.9 265.4 123.3 264.6 123.3Z" fill="white"/>
<path d="M299.1 118.2H224.3C223.5 118.2 222.9 117.8 222.9 117.4C222.9 116.9 223.5 116.6 224.2 116.6H299.4C300.2 116.6 300.7 117 300.6 117.4C300.5 117.9 299.8 118.2 299.1 118.2Z" fill="white"/>
<path opacity="0.5" d="M208.6 116.6H213.9C214.7 116.6 215.3 117 215.3 117.4C215.3 117.9 214.8 118.2 214 118.2H208.7C207.9 118.2 207.3 117.8 207.2 117.4C207.2 116.9 207.8 116.6 208.6 116.6Z" fill="white"/>
<path d="M309.9 112.1C309.8 112.6 309.1 113 308.3 113H237.8C237 113 236.4 112.6 236.4 112.1C236.4 111.6 237 111.2 237.8 111.2H308.7C309.4 111.3 310 111.6 309.9 112.1Z" fill="white"/>
<path d="M208 111.3H228C228.8 111.3 229.4 111.7 229.4 112.2C229.4 112.7 228.8 113.1 228.1 113.1H208.2C207.4 113.1 206.8 112.7 206.7 112.2C206.7 111.6 207.2 111.3 208 111.3Z" fill="white"/>
<path d="M207.4 105.8H284.3C285.1 105.8 285.7 106.2 285.6 106.7C285.5 107.2 284.9 107.6 284.1 107.6H207.6C206.8 107.6 206.1 107.2 206.1 106.7C206.1 106.2 206.6 105.8 207.4 105.8Z" fill="white"/>
<path d="M257.4 101.9C256.6 101.9 256 101.5 256 101C256 100.5 256.7 100.1 257.5 100.1H298.1C298.9 100.1 299.5 100.5 299.4 101C299.3 101.5 298.6 101.9 297.8 101.9H257.4Z" fill="white"/>
<path d="M206.8 100.1H242C242.8 100.1 243.4 100.5 243.4 101C243.4 101.5 242.8 101.9 242 101.9H207C206.2 101.9 205.5 101.5 205.5 101C205.4 100.5 206 100.1 206.8 100.1Z" fill="white"/>
<path d="M338.1 96.1H241.4C240.6 96.1 239.9 95.7 239.9 95.1C239.9 94.6 240.5 94.1 241.4 94.1H338.7C339.5 94.1 340 94.5 339.9 95.1C339.6 95.7 338.9 96.1 338.1 96.1Z" fill="white"/>
<path d="M339.8 90.1H254.7C253.9 90.1 253.2 89.7 253.2 89.1C253.2 88.6 253.9 88.1 254.7 88.1H340.3C341.1 88.1 341.7 88.5 341.5 89.1C341.4 89.7 340.6 90.1 339.8 90.1Z" fill="white"/>
<path opacity="0.5" d="M341.6 83.9H323.8C323 83.9 322.4 83.4 322.5 82.9C322.6 82.3 323.4 81.9 324.3 81.9H342.2C343 81.9 343.6 82.4 343.4 82.9C343.2 83.4 342.4 83.9 341.6 83.9Z" fill="white"/>
<path d="M311.3 83.9H245.9C245.1 83.9 244.4 83.4 244.4 82.9C244.4 82.3 245.1 81.9 245.9 81.9H311.7C312.5 81.9 313.1 82.4 313 82.9C312.9 83.4 312.1 83.9 311.3 83.9Z" fill="white"/>
<path d="M210.2 131.5H270.6C271.3 131.5 271.9 131.8 271.8 132.3C271.8 132.7 271.1 133.1 270.4 133.1H210.3C209.6 133.1 209 132.8 208.9 132.3C208.9 131.8 209.4 131.5 210.2 131.5Z" fill="white"/>
<path d="M210.7 136.1H303.5C304.2 136.1 304.7 136.4 304.6 136.8C304.5 137.2 303.9 137.5 303.2 137.5H210.8C210.1 137.5 209.5 137.2 209.4 136.8C209.4 136.5 210 136.1 210.7 136.1Z" fill="white"/>
<path d="M308.1 77.4H260.8C260 77.4 259.3 76.9 259.3 76.3C259.3 75.7 260 75.2 260.9 75.2H308.4C309.3 75.2 309.9 75.7 309.7 76.3C309.7 76.9 308.9 77.4 308.1 77.4Z" fill="white"/>
<path opacity="0.5" d="M247.4 77.4H204.4C203.6 77.4 202.8 76.9 202.7 76.3C202.6 75.7 203.3 75.2 204.1 75.2H247.3C248.2 75.2 248.8 75.7 248.8 76.3C248.9 76.9 248.2 77.4 247.4 77.4Z" fill="white"/>
<path opacity="0.5" d="M284 131.5C284.7 131.5 285.3 131.8 285.2 132.3C285.1 132.7 284.5 133.1 283.8 133.1H279.1C278.4 133.1 277.8 132.8 277.9 132.3C278 131.9 278.6 131.5 279.3 131.5H284Z" fill="white"/>
<path opacity="0.5" d="M226.7 127.4C226.7 127.8 226.1 128.2 225.4 128.2H219C218.3 128.2 217.7 127.9 217.6 127.4C217.6 127 218.1 126.6 218.9 126.6H225.3C226 126.7 226.7 127 226.7 127.4Z" fill="white"/>
<path opacity="0.5" d="M303.4 106.7C303.3 107.2 302.6 107.6 301.8 107.6H294.4C293.6 107.6 293.1 107.2 293.1 106.7C293.2 106.2 293.9 105.8 294.7 105.8H302.2C303 105.8 303.5 106.2 303.4 106.7Z" fill="white"/>
<path opacity="0.5" d="M326.6 111.3C327.4 111.3 327.9 111.7 327.8 112.2C327.7 112.7 326.9 113.1 326.2 113.1H320.3C319.5 113.1 319 112.7 319.1 112.2C319.2 111.7 319.9 111.3 320.7 111.3H326.6Z" fill="white"/>
<path opacity="0.5" d="M229.7 96.1C228.9 96.1 228.2 95.7 228.2 95.1C228.2 94.6 228.8 94.1 229.6 94.1H235.9C236.7 94.1 237.4 94.5 237.4 95.1C237.4 95.6 236.8 96.1 236 96.1H229.7Z" fill="white"/>
<path d="M143.7 65.2999C144.2 66.8999 143.2 68.2999 141.6 68.2999C140 68.2999 138.2 66.9999 137.7 65.2999C137.2 63.5999 138.1 62.2999 139.8 62.2999C141.4 62.2999 143.2 63.6999 143.7 65.2999Z" fill="white"/>
<path d="M151.9 65.3999C152.3 66.9999 151.3 68.2999 149.7 68.2999C148.1 68.2999 146.3 66.9999 145.9 65.3999C145.4 63.6999 146.4 62.3999 148.1 62.3999C149.7 62.3999 151.4 63.6999 151.9 65.3999Z" fill="white"/>
<path d="M160.1 65.2999C160.5 66.8999 159.5 68.2999 157.8 68.2999C156.1 68.2999 154.5 66.9999 154.1 65.2999C153.7 63.5999 154.7 62.2999 156.4 62.2999C158 62.2999 159.7 63.6999 160.1 65.2999Z" fill="white"/>
<path opacity="0.1" d="M81.5 54.3999L108.5 126.5L141 54.3999H81.5Z" fill="white"/>
<path opacity="0.1" d="M127 146.9L180.9 54.3999H237.4L158 146.9H127Z" fill="white"/>
<path opacity="0.1" d="M261.7 53.9999L177.6 146.9H190.6L277.7 54.3999L261.7 53.9999Z" fill="white"/>
<path opacity="0.1" d="M278.3 146.9L370.7 54.3999H383.7L288.5 146.9H278.3Z" fill="white"/>
<path d="M153 187.1H131.9C129.2 187.1 126.9 189.3 126.9 192.1V202.4C126.9 205.1 129.1 207.4 131.9 207.4H137.4L141.6 216.9L147.5 207.4H153C155.7 207.4 158 205.2 158 202.4V192C158 189.3 155.8 187.1 153 187.1Z" fill="white" stroke="#263238" stroke-miterlimit="10" stroke-linecap="round" stroke-linejoin="round"/>
<path d="M139.6 192.9C139.6 192.4 140 191.9 140.6 191.9C141.2 191.9 141.6 192.3 141.6 192.8C141.6 193.4 141.2 193.8 140.6 193.8C140 193.9 139.6 193.5 139.6 192.9ZM139.8 195H141.4V201.9H139.8V195Z" fill="#263238"/>
<path d="M145.3 194.7V195.1H147.2V196.4H145.4V201.9H143.8V196.4H142.7V195.1H143.8V194.7C143.8 193.3 144.7 192.3 146.3 192.3C146.9 192.3 147.4 192.4 147.8 192.7L147.4 193.9C147.2 193.7 146.8 193.6 146.5 193.6C145.6 193.6 145.3 193.9 145.3 194.7Z" fill="#263238"/>
<path d="M217.3 188.5H196.2C193.5 188.5 191.2 190.7 191.2 193.5V203.8C191.2 206.5 193.4 208.8 196.2 208.8H201.7L205.9 218.3L211.8 208.8H217.3C220 208.8 222.3 206.6 222.3 203.8V193.5C222.2 190.7 220 188.5 217.3 188.5Z" fill="white" stroke="#263238" stroke-miterlimit="10" stroke-linecap="round" stroke-linejoin="round"/>
<path d="M200.6 200.4H195.2C195.4 201.4 196.2 202 197.4 202C198.2 202 198.8 201.8 199.3 201.3L200.2 202.3C199.6 203 198.6 203.4 197.4 203.4C195.1 203.4 193.6 201.9 193.6 199.9C193.6 197.9 195.1 196.4 197.1 196.4C199.1 196.4 200.6 197.8 200.6 199.9C200.6 200.1 200.6 200.3 200.6 200.4ZM195.2 199.3H199.1C199 198.3 198.2 197.6 197.2 197.6C196.1 197.7 195.4 198.3 195.2 199.3Z" fill="#263238"/>
<path d="M202.2 193.8H203.8V203.3H202.2V193.8Z" fill="#263238"/>
<path d="M205.1 202.6L205.7 201.4C206.3 201.8 207.2 202.1 208.1 202.1C209.1 202.1 209.5 201.8 209.5 201.3C209.5 200 205.3 201.2 205.3 198.5C205.3 197.2 206.5 196.4 208.3 196.4C209.2 196.4 210.3 196.6 210.9 197L210.3 198.2C209.6 197.8 209 197.7 208.3 197.7C207.3 197.7 206.9 198 206.9 198.5C206.9 199.9 211.1 198.7 211.1 201.3C211.1 202.6 209.9 203.4 208 203.4C206.8 203.4 205.7 203.1 205.1 202.6Z" fill="#263238"/>
<path d="M218.899 200.4H213.499C213.699 201.4 214.499 202 215.699 202C216.499 202 217.099 201.8 217.599 201.3L218.499 202.3C217.899 203 216.899 203.4 215.699 203.4C213.399 203.4 211.899 201.9 211.899 199.9C211.899 197.9 213.399 196.4 215.399 196.4C217.399 196.4 218.899 197.8 218.899 199.9C218.899 200.1 218.899 200.3 218.899 200.4ZM213.499 199.3H217.399C217.299 198.3 216.499 197.6 215.499 197.6C214.399 197.7 213.699 198.3 213.499 199.3Z" fill="#263238"/>
<path d="M279.5 187.9H258.4C255.7 187.9 253.4 190.1 253.4 192.9V203.2C253.4 205.9 255.6 208.2 258.4 208.2H263.9L268.1 217.7L274 208.2H279.5C282.2 208.2 284.5 206 284.5 203.2V192.9C284.5 190.1 282.3 187.9 279.5 187.9Z" fill="white" stroke="#263238" stroke-miterlimit="10" stroke-linecap="round" stroke-linejoin="round"/>
<path d="M263.3 195.5V195.9H265.2V197.2H263.4V202.7H261.8V197.2H260.7V195.9H261.8V195.5C261.8 194.1 262.7 193.1 264.3 193.1C264.9 193.1 265.4 193.2 265.8 193.5L265.3 194.7C265.1 194.5 264.7 194.4 264.4 194.4C263.6 194.4 263.3 194.8 263.3 195.5Z" fill="#263238"/>
<path d="M265.6 199.3C265.6 197.2 267.1 195.8 269.2 195.8C271.3 195.8 272.9 197.3 272.9 199.3C272.9 201.4 271.4 202.8 269.2 202.8C267.1 202.8 265.6 201.3 265.6 199.3ZM271.2 199.3C271.2 198 270.3 197.2 269.2 197.2C268 197.2 267.2 198 267.2 199.3C267.2 200.6 268.1 201.4 269.2 201.4C270.4 201.4 271.2 200.6 271.2 199.3Z" fill="#263238"/>
<path d="M278.4 195.8V197.3C278.3 197.3 278.1 197.3 278 197.3C276.8 197.3 276 198 276 199.4V202.7H274.4V195.8H275.9V196.8C276.4 196.1 277.2 195.8 278.4 195.8Z" fill="#263238"/>
<path d="M340.9 187.1H319.8C317.1 187.1 314.8 189.3 314.8 192.1V202.4C314.8 205.1 317 207.4 319.8 207.4H325.3L329.5 216.9L335.4 207.4H340.9C343.6 207.4 345.9 205.2 345.9 202.4V192C345.8 189.3 343.6 187.1 340.9 187.1Z" fill="white" stroke="#263238" stroke-miterlimit="10" stroke-linecap="round" stroke-linejoin="round"/>
<path d="M327.6 194.7H333.5V196H327.6V194.7ZM327.6 197.8H333.5V199.1H327.6V197.8Z" fill="#263238"/>
<path d="M185.2 175.2H164.1C161.4 175.2 159.1 177.4 159.1 180.2V190.5C159.1 193.2 161.3 195.5 164.1 195.5H169.6L173.8 205L179.7 195.5H185.2C187.9 195.5 190.2 193.3 190.2 190.5V180.2C190.2 177.4 187.9 175.2 185.2 175.2Z" fill="white" stroke="#263238" stroke-miterlimit="10" stroke-linecap="round" stroke-linejoin="round"/>
<path d="M169.7 179.4H172.8V180.7H171.3V190.2H172.8V191.5H169.7V179.4Z" fill="#263238"/>
<path d="M176.7 191.5V190.2H178.2V180.7H176.7V179.4H179.8V191.4H176.7V191.5Z" fill="#263238"/>
<path d="M247.9 174.1H226.8C224.1 174.1 221.8 176.3 221.8 179.1V189.4C221.8 192.1 224 194.4 226.8 194.4H232.3L236.5 203.9L242.4 194.4H247.9C250.6 194.4 252.9 192.2 252.9 189.4V179.1C252.9 176.4 250.7 174.1 247.9 174.1Z" fill="white" stroke="#263238" stroke-miterlimit="10" stroke-linecap="round" stroke-linejoin="round"/>
<path d="M233.1 184.4C233.6 184.6 233.9 184.9 233.9 185.7V188.1C233.9 188.7 234.2 189.1 234.9 189.1H235.2V190.4H234.6C233.1 190.4 232.4 189.7 232.4 188.3V185.7C232.4 185.3 232.2 185.1 231.8 185.1H231.4V183.8H231.8C232.2 183.8 232.4 183.6 232.4 183.2V180.6C232.4 179.2 233.1 178.5 234.6 178.5H235.2V179.8H234.9C234.3 179.8 233.9 180.2 233.9 180.8V183.2C233.8 183.9 233.6 184.2 233.1 184.4Z" fill="#263238"/>
<path d="M242.9 183.7V185H242.5C242.2 185 241.9 185.2 241.9 185.6V188.2C241.9 189.6 241.2 190.3 239.7 190.3H239V189H239.3C240 189 240.3 188.6 240.3 188V185.6C240.3 184.8 240.5 184.5 241 184.3C240.5 184.1 240.3 183.8 240.3 183V180.6C240.3 180 240 179.6 239.3 179.6H239V178.3H239.6C241.1 178.3 241.8 179 241.8 180.4V183C241.8 183.4 242 183.6 242.4 183.6H242.9V183.7Z" fill="#263238"/>
<path d="M310 172.1H288.9C286.2 172.1 283.9 174.3 283.9 177.1V187.4C283.9 190.1 286.1 192.4 288.9 192.4H294.4L298.6 201.9L304.5 192.4H310C312.7 192.4 315 190.2 315 187.4V177C314.9 174.3 312.7 172.1 310 172.1Z" fill="white" stroke="#263238" stroke-miterlimit="10" stroke-linecap="round" stroke-linejoin="round"/>
<path d="M298.6 179.7C298.6 179.1 299.1 178.6 299.7 178.6C300.3 178.6 300.8 179 300.8 179.7C300.8 180.3 300.3 180.8 299.7 180.8C299.1 180.7 298.6 180.3 298.6 179.7ZM300.7 184.5C300.7 184.8 300.6 185 300.4 185.6L299.7 187.4H298.7L299.2 185.4C298.8 185.2 298.6 184.9 298.6 184.4C298.6 183.8 299 183.3 299.6 183.3C300.3 183.5 300.7 183.9 300.7 184.5Z" fill="#263238"/>
<path d="M227.5 351.5H248.6C251.3 351.5 253.6 349.3 253.6 346.5V336.2C253.6 333.5 251.4 331.2 248.6 331.2H243.1L241.5 321.7L233 331.2H227.5C224.8 331.2 222.5 333.4 222.5 336.2V346.5C222.5 349.3 224.8 351.5 227.5 351.5Z" fill="white" stroke="#263238" stroke-miterlimit="10" stroke-linecap="round" stroke-linejoin="round"/>
<path d="M234.9 339.3L230.5 341L234.9 342.7V344L229 341.7V340.3L234.9 338V339.3Z" fill="#263238"/>
<path d="M239.6 334.6H241L236.8 346.7H235.4L239.6 334.6Z" fill="#263238"/>
<path d="M247.3 340.3V341.7L241.4 344V342.7L245.8 341L241.4 339.3V338L247.3 340.3Z" fill="#263238"/>
<path d="M93.3999 276.7H114.5C117.2 276.7 119.5 274.5 119.5 271.7V261.4C119.5 258.7 117.3 256.4 114.5 256.4H109L110.2 246.9L98.8999 256.4H93.3999C90.6999 256.4 88.3999 258.6 88.3999 261.4V271.7C88.3999 274.5 90.5999 276.7 93.3999 276.7Z" fill="white" stroke="#263238" stroke-miterlimit="10" stroke-linecap="round" stroke-linejoin="round"/>
<path d="M99.6001 270.2C99.6001 269.6 100 269.2 100.6 269.2C101.2 269.2 101.6 269.6 101.6 270.2C101.6 270.8 101.2 271.2 100.6 271.2C100.1 271.2 99.6001 270.8 99.6001 270.2ZM99.7001 262.2H101.6L101.3 268.2H100L99.7001 262.2Z" fill="#263238"/>
<path d="M103.3 264.5H109.2V265.8H103.3V264.5ZM103.3 267.6H109.2V268.9H103.3V267.6Z" fill="#263238"/>
<path d="M431.2 265.1C431.2 269.2 430.9 273.2 430.2 277C427.3 294.3 418.2 306.9 407.4 306.9C406.4 306.9 405.5 306.8 404.5 306.6C392.8 304.1 383.6 286.5 383.6 265.1C383.6 242 394.2 233.9 407.3 233.9C420.5 233.9 431.2 242 431.2 265.1Z" fill="white"/>
<path d="M422.6 265.4C423.5 277.8 421.4 290.2 417.8 302.1C426.7 294.8 430.9 283.2 434.6 272.3C437.3 264.3 440 256.2 439.5 247.8C439 239.4 434.5 230.7 426.7 227.8C422.9 226.4 418.4 226.5 414.6 228C408 230.6 411.6 232.8 414.4 237.5C419.2 245.9 421.9 255.6 422.6 265.4Z" fill="#03372B"/>
<path opacity="0.5" d="M422.6 265.4C423.5 277.8 421.4 290.2 417.8 302.1C426.7 294.8 430.9 283.2 434.6 272.3C437.3 264.3 440 256.2 439.5 247.8C439 239.4 434.5 230.7 426.7 227.8C422.9 226.4 418.4 226.5 414.6 228C408 230.6 411.6 232.8 414.4 237.5C419.2 245.9 421.9 255.6 422.6 265.4Z" fill="white"/>
<path d="M431.2 265.1C431.2 269.2 430.9 273.2 430.2 277C427.3 294.3 418.2 306.9 407.4 306.9C406.4 306.9 405.5 306.8 404.5 306.6C392.8 304.1 383.6 286.5 383.6 265.1C383.6 242 394.2 233.9 407.3 233.9C420.5 233.9 431.2 242 431.2 265.1Z" stroke="#263238" stroke-miterlimit="10"/>
<path d="M420.2 286.3C418.6 291.6 416 296.6 412.4 300.9Z" fill="white"/>
<path d="M420.2 286.3C418.6 291.6 416 296.6 412.4 300.9" stroke="#263238" stroke-miterlimit="10"/>
<path d="M420.9 283.4C420.8 284 420.6 284.5 420.5 285.1" stroke="#263238" stroke-miterlimit="10"/>
<path d="M420.9 265.1C422.2 270.4 422.3 276 421.4 281.4Z" fill="white"/>
<path d="M420.9 265.1C422.2 270.4 422.3 276 421.4 281.4" stroke="#263238" stroke-miterlimit="10"/>
<path d="M383.7 265.1C383.7 265.1 410.7 254.4 431.2 265.1" stroke="#263238" stroke-miterlimit="10"/>
<path d="M407.4 233.9C407.4 233.9 410.1 243.9 410.4 260.2Z" fill="white"/>
<path d="M407.4 233.9C407.4 233.9 410.1 243.9 410.4 260.2" stroke="#263238" stroke-miterlimit="10"/>
<path d="M411.2 246C411.5 249.1 411 251.8 410 251.9C409 252.1 407.9 249.7 407.5 246.6C407.2 243.5 407.7 240.8 408.7 240.7C409.8 240.5 410.9 242.9 411.2 246Z" fill="#BFBFBF" stroke="#263238" stroke-miterlimit="10" stroke-linecap="round" stroke-linejoin="round"/>
<path d="M396.8 314.9H365.2C361.3 314.9 358 312 357.5 308.2C357.4 307.9 357.4 307.5 357.4 307.1V232.5C357.4 232.1 357.4 231.8 357.5 231.4C358 227.6 361.3 224.7 365.2 224.7H454.9C456.3 224.7 457.5 225.1 458.6 225.7" stroke="#263238" stroke-miterlimit="10"/>
</g>
<defs>
<clipPath id="clip0">
<rect width="462.9" height="395.7" fill="white"/>
</clipPath>
</defs>
</svg>
